<svg xmlns="http://www.w3.org/2000/svg" xmlns:xlink="http://www.w3.org/1999/xlink" width="500" zoomAndPan="magnify" viewBox="0 0 375 374.999991" height="500" preserveAspectRatio="xMidYMid meet" version="1.0"><defs><g/><clipPath id="c96e2ce3b2"><path d="M 250 126 L 311 126 L 311 282.519531 L 250 282.519531 Z M 250 126 " clip-rule="nonzero"/></clipPath></defs><path fill="#fdd28a" d="M 74.402344 281.898438 C 67.121094 270.933594 68.1875 256.523438 73.910156 248.648438 C 131.292969 248.984375 188.945312 248.308594 246.328125 248.648438 C 247.480469 248.65625 248.6875 248.679688 249.691406 249.246094 C 251.007812 249.996094 251.648438 251.519531 252.140625 252.953125 C 253.792969 257.785156 255.207031 276.199219 249.699219 279.449219 C 248.777344 279.996094 247.644531 280.058594 246.554688 280.09375 C 199.144531 281.84375 151.6875 282.257812 104.257812 281.8125 Z M 74.402344 281.898438 " fill-opacity="1" fill-rule="nonzero"/><path stroke-linecap="round" transform="matrix(1.088415, 0, 0, 1.087707, -43.855562, -26.607947)" fill="none" stroke-linejoin="round" d="M 121.338381 281.651236 C 118.571313 272.008675 118.521067 261.601174 121.198413 251.929884 " stroke="#365fa0" stroke-width="0.835" stroke-opacity="1" stroke-miterlimit="10"/><path stroke-linecap="round" transform="matrix(1.088415, 0, 0, 1.087707, -43.855562, -26.607947)" fill="none" stroke-linejoin="round" d="M 238.62118 281.741018 C 240.738652 271.760878 240.828375 263.899587 238.940596 253.86917 " stroke="#365fa0" stroke-width="0.835" stroke-opacity="1" stroke-miterlimit="10"/><path stroke-linecap="round" transform="matrix(1.088415, 0, 0, 1.087707, -43.855562, -26.607947)" fill="none" stroke-linejoin="round" d="M 231.091595 281.101771 C 232.850173 273.358993 232.821462 263.691294 230.991105 255.959289 " stroke="#365fa0" stroke-width="0.835" stroke-opacity="1" stroke-miterlimit="10"/><path stroke-linecap="round" transform="matrix(1.088415, 0, 0, 1.087707, -43.855562, -26.607947)" fill="none" stroke-linejoin="round" d="M 131.771415 271.73933 C 134.369803 270.500342 136.480097 268.291711 137.610611 265.641353 C 136.440619 267.480084 137.230184 270.590124 139.40149 270.791235 C 140.869364 270.931294 142.118314 269.710262 142.821745 268.420996 C 143.521587 267.13173 143.909192 265.648536 144.849493 264.510103 C 144.329097 266.011254 144.278852 267.670421 144.698758 269.211076 C 144.799248 269.570203 144.939216 269.950877 145.251454 270.148397 C 145.639059 270.41056 146.148687 270.310005 146.590126 270.191493 C 149.920658 269.25058 152.831284 266.919845 154.478605 263.881631 C 154.080233 265.468972 154.091 267.171234 154.510905 268.751393 C 154.640107 269.261354 154.880566 269.828774 155.390194 270.001155 C 155.8101 270.141215 156.258716 269.961651 156.64991 269.749766 C 158.878639 268.579012 160.708996 266.6505 161.760553 264.35927 C 161.57034 265.551571 161.390893 266.79056 161.73902 267.939766 C 162.090735 269.088973 163.160238 270.119667 164.358942 270.019112 C 164.958294 269.968834 165.500223 269.649211 166.009852 269.311631 C 167.929932 268.029548 169.620321 266.409885 170.980527 264.560381 C 171.188685 265.591075 170.80108 266.6505 170.740068 267.699151 C 170.679056 268.751393 171.199452 270.029885 172.25101 270.130441 C 172.861129 270.191493 173.42818 269.810818 173.909098 269.440917 C 175.581541 268.158834 177.099661 266.690004 178.438333 265.070341 C 178.140452 265.899925 177.849748 266.769012 177.97895 267.648873 C 178.11174 268.521552 178.81876 269.369092 179.701638 269.358318 C 180.311757 269.351135 180.839331 268.948913 181.309481 268.561056 C 182.55843 267.519588 183.73919 266.399111 184.840993 265.221175 C 183.77149 266.151314 184.019127 268.058278 185.149641 268.909409 C 186.290923 269.749766 187.970544 269.59175 189.108236 268.758576 C 190.260284 267.928992 190.920648 266.571492 191.200585 265.181671 " stroke="#365fa0" stroke-width="0.835" stroke-opacity="1" stroke-miterlimit="10"/><path fill="#d7c8b5" d="M 88.027344 248.503906 C 84.894531 244.003906 85.144531 234.355469 87.625 229.863281 C 135.582031 230.058594 183.21875 227.199219 231.175781 227.394531 C 232.144531 227.394531 233.15625 227.402344 233.996094 227.730469 C 235.09375 228.15625 235.628906 229.003906 236.042969 229.808594 C 237.421875 232.515625 238.402344 246.546875 233.800781 248.375 C 233.027344 248.679688 232.078125 248.710938 231.175781 248.734375 C 191.558594 249.714844 152.636719 248.710938 112.996094 248.460938 Z M 88.027344 248.503906 " fill-opacity="1" fill-rule="nonzero"/><path stroke-linecap="round" transform="matrix(1.088415, 0, 0, 1.087707, -43.855562, -26.607947)" fill="none" stroke-linejoin="round" d="M 142.071657 248.880895 C 145.800561 249.211292 150.390808 249.498594 153.538304 247.4803 C 155.329182 246.331093 156.901136 244.359486 155.551696 242.359149 C 153.868486 239.859624 150.200595 239.870398 147.530427 239.719565 C 142.470029 239.439446 136.279117 239.378394 131.961628 242.4202 C 126.370068 246.331093 139.591703 248.658236 142.071657 248.880895 Z M 142.071657 248.880895 " stroke="#365fa0" stroke-width="0.835" stroke-opacity="1" stroke-miterlimit="10"/><path stroke-linecap="round" transform="matrix(1.088415, 0, 0, 1.087707, -43.855562, -26.607947)" fill="none" stroke-linejoin="round" d="M 161.089423 249.171788 C 160.759241 246.090478 160.418292 242.998395 160.091699 239.920676 " stroke="#365fa0" stroke-width="0.835" stroke-opacity="1" stroke-miterlimit="10"/><path stroke-linecap="round" transform="matrix(1.088415, 0, 0, 1.087707, -43.855562, -26.607947)" fill="none" stroke-linejoin="round" d="M 164.491733 249.760756 C 164.02876 246.108435 163.781124 242.441748 163.75959 238.760696 " stroke="#365fa0" stroke-width="0.835" stroke-opacity="1" stroke-miterlimit="10"/><path stroke-linecap="round" transform="matrix(1.088415, 0, 0, 1.087707, -43.855562, -26.607947)" fill="none" stroke-linejoin="round" d="M 240.060343 248.981451 C 240.121355 245.961193 240.010098 242.93016 239.708628 239.920676 " stroke="#365fa0" stroke-width="0.835" stroke-opacity="1" stroke-miterlimit="10"/><path stroke-linecap="round" transform="matrix(1.088415, 0, 0, 1.087707, -43.855562, -26.607947)" fill="none" stroke-linejoin="round" d="M 243.939982 248.791113 C 243.739001 245.04901 243.44112 241.310498 243.021214 237.579168 " stroke="#365fa0" stroke-width="0.835" stroke-opacity="1" stroke-miterlimit="10"/><path fill="#ef7e6b" d="M 68.914062 229.722656 C 62.046875 216.136719 63.046875 198.308594 68.457031 188.550781 C 122.53125 188.976562 176.851562 188.128906 230.925781 188.550781 C 232.015625 188.5625 233.15625 188.585938 234.105469 189.300781 C 235.34375 190.238281 235.953125 192.109375 236.410156 193.890625 C 237.96875 199.875 239.304688 222.671875 234.113281 226.699219 C 233.234375 227.382812 232.175781 227.449219 231.152344 227.492188 C 186.484375 229.667969 141.761719 230.167969 97.074219 229.613281 Z M 68.914062 229.722656 " fill-opacity="1" fill-rule="nonzero"/><path stroke-linecap="round" transform="matrix(1.088415, 0, 0, 1.087707, -43.855562, -26.607947)" fill="none" stroke-linejoin="round" d="M 115.621208 226.410318 C 121.891077 226.36004 128.150179 226.33131 134.420048 226.33131 C 133.971432 219.831111 133.519226 213.330911 133.070609 206.819939 C 133.049075 206.56855 133.031131 206.299204 132.869629 206.101685 C 132.66147 205.828748 132.281043 205.77847 131.940095 205.738966 C 126.029119 205.189502 120.089432 205.060216 114.171279 205.369065 C 114.731152 210.299879 115.639153 215.209146 115.639153 220.16869 Z M 115.621208 226.410318 " stroke="#365fa0" stroke-width="0.835" stroke-opacity="1" stroke-miterlimit="10"/><path stroke-linecap="round" transform="matrix(1.088415, 0, 0, 1.087707, -43.855562, -26.607947)" fill="none" stroke-linejoin="round" d="M 142.139847 216.038729 C 142.340827 217.629662 143.991737 218.879424 145.570869 218.649583 C 147.15 218.419741 148.381005 216.749801 148.119012 215.169642 C 148.958823 216.649245 150.189828 218.071388 151.858682 218.369464 C 153.531126 218.67113 155.501451 217.248987 155.171269 215.58982 C 156.208471 216.868313 157.73018 217.981606 159.370323 217.798452 C 161.010466 217.618888 162.370672 215.579047 161.40166 214.239503 C 162.410151 215.719106 163.551432 217.310039 165.270532 217.791269 C 166.989631 218.279682 169.25066 216.850356 168.809221 215.119364 C 169.799767 216.728253 171.33942 217.999563 173.119532 218.638809 C 173.751185 217.248987 174.120845 215.740654 174.210568 214.210773 C 175.958379 215.629324 177.049416 218.610079 179.270966 218.21863 C 180.390714 218.02111 181.169513 216.879086 181.270003 215.740654 C 181.370493 214.59863 180.929054 213.488927 180.390714 212.47978 " stroke="#365fa0" stroke-width="0.835" stroke-opacity="1" stroke-miterlimit="10"/><path stroke-linecap="round" transform="matrix(1.088415, 0, 0, 1.087707, -43.855562, -26.607947)" fill="none" stroke-linejoin="round" d="M 214.069278 225.860853 C 214.49995 219.870615 214.589673 213.851646 214.33127 207.850633 " stroke="#365fa0" stroke-width="0.835" stroke-opacity="1" stroke-miterlimit="10"/><path stroke-linecap="round" transform="matrix(1.088415, 0, 0, 1.087707, -43.855562, -26.607947)" fill="none" stroke-linejoin="round" d="M 220.988744 225.210833 C 220.62985 219.209821 220.26019 213.208808 219.901297 207.21857 " stroke="#365fa0" stroke-width="0.835" stroke-opacity="1" stroke-miterlimit="10"/><path stroke-linecap="round" transform="matrix(1.088415, 0, 0, 1.087707, -43.855562, -26.607947)" fill="none" stroke-linejoin="round" d="M 226.070675 225.329345 C 226.160399 219.328333 226.250122 212.799403 226.350612 206.798391 C 233.29879 206.798391 240.961166 208.141526 248.289771 207.839859 C 249.398751 210.32861 249.901202 213.488927 249.879669 216.071051 C 249.861724 219.141587 249.398751 221.698571 248.149802 224.790655 C 242.540297 224.700873 236.909258 224.790655 231.321287 225.340119 L 226.070675 225.340119 Z M 226.070675 225.329345 " stroke="#365fa0" stroke-width="0.835" stroke-opacity="1" stroke-miterlimit="10"/><path fill="#98d4e1" d="M 96.148438 188.507812 C 89.8125 178.316406 90.726562 163.425781 96.027344 156.300781 C 147.5625 157.671875 199.351562 158.09375 250.886719 159.464844 C 251.921875 159.5 253.007812 159.53125 253.902344 160.074219 C 255.066406 160.792969 255.621094 162.195312 256.035156 163.523438 C 257.429688 167.984375 258.355469 184.90625 253.347656 187.789062 C 252.496094 188.28125 251.484375 188.300781 250.515625 188.324219 C 207.90625 189.0625 167.527344 189.757812 124.9375 188.484375 Z M 96.148438 188.507812 " fill-opacity="1" fill-rule="nonzero"/><path stroke-linecap="round" transform="matrix(1.088415, 0, 0, 1.087707, -43.855562, -26.607947)" fill-opacity="1" fill="#98d4e1" fill-rule="nonzero" stroke-linejoin="round" d="M 270.451443 197.601148 C 246.190244 198.021327 222.71861 198.430731 199.060352 198.39841 C 184.539522 198.380454 169.950503 198.20089 155.070779 197.74839 " stroke="#365fa0" stroke-width="0.835" stroke-opacity="1" stroke-miterlimit="10"/><path stroke-linecap="round" transform="matrix(1.088415, 0, 0, 1.087707, -43.855562, -26.607947)" fill="none" stroke-linejoin="round" d="M 128.51984 168.159915 C 156.068503 168.888943 183.688945 169.330669 211.309387 169.819082 C 220.098688 169.969915 228.880811 170.131522 237.659346 170.311086 C 248.709676 170.530153 259.760006 170.781542 270.799569 171.068844 C 271.750637 171.101165 272.748361 171.129895 273.570227 171.629082 C 274.63973 172.289876 275.149358 173.579142 275.529785 174.800173 " stroke="#365fa0" stroke-width="0.835" stroke-opacity="1" stroke-miterlimit="10"/><path stroke-linecap="round" transform="matrix(1.088415, 0, 0, 1.087707, -43.855562, -26.607947)" fill="none" stroke-linejoin="round" d="M 171.378899 190.939342 C 171.120495 185.890016 170.86927 180.829916 170.610867 175.78059 " stroke="#365fa0" stroke-width="0.835" stroke-opacity="1" stroke-miterlimit="10"/><path stroke-linecap="round" transform="matrix(1.088415, 0, 0, 1.087707, -43.855562, -26.607947)" fill="none" stroke-linejoin="round" d="M 175.021667 191.98081 C 174.648418 186.001345 174.50845 179.978785 174.601762 173.97059 " stroke="#365fa0" stroke-width="0.835" stroke-opacity="1" stroke-miterlimit="10"/><path stroke-linecap="round" transform="matrix(1.088415, 0, 0, 1.087707, -43.855562, -26.607947)" fill="none" stroke-linejoin="round" d="M 256.260795 192.368667 C 256.429475 187.419897 256.400763 182.471127 256.189016 177.529539 " stroke="#365fa0" stroke-width="0.835" stroke-opacity="1" stroke-miterlimit="10"/><path stroke-linecap="round" transform="matrix(1.088415, 0, 0, 1.087707, -43.855562, -26.607947)" fill="none" stroke-linejoin="round" d="M 260.431137 192.138826 C 260.341413 186.008528 260.140433 179.889003 259.821018 173.780253 " stroke="#365fa0" stroke-width="0.835" stroke-opacity="1" stroke-miterlimit="10"/><path stroke-linecap="round" transform="matrix(1.088415, 0, 0, 1.087707, -43.855562, -26.607947)" fill-opacity="1" fill="#d7c8b5" fill-rule="nonzero" stroke-linejoin="round" d="M 181.029544 192.968409 C 180.979299 187.039222 181.460216 180.438468 181.409971 174.509281 C 190.938593 174.821721 208.100879 175.109023 218.07094 175.320908 C 218.659525 181.368607 218.038639 186.881206 217.690513 193.729759 C 208.829433 193.550195 198.89885 193.349084 186.581626 193.090513 Z M 181.029544 192.968409 " stroke="#365fa0" stroke-width="0.835" stroke-opacity="1" stroke-miterlimit="10"/><path stroke-linecap="round" transform="matrix(1.088415, 0, 0, 1.087707, -43.855562, -26.607947)" fill="none" stroke-linejoin="round" d="M 163.099226 191.460076 C 160.859731 189.980473 158.250575 189.000056 155.54093 188.619381 C 157.109294 188.8995 158.749437 188.809719 160.271146 188.371584 C 160.730529 188.231524 161.250925 188.001683 161.329881 187.549183 C 161.40166 187.179282 161.139668 186.830929 160.870498 186.561583 C 159.399034 185.031702 157.238496 184.108746 155.038479 184.058468 C 156.829357 184.248805 158.659714 184.080016 160.378814 183.580829 C 161.250925 183.318666 162.219937 182.79075 162.20917 181.939619 C 162.191226 181.149539 161.329881 180.650353 160.551082 180.33073 C 159.158576 179.759718 157.708646 179.328765 156.230005 179.03069 C 158.178797 179.551424 160.490071 180.000333 162.04049 178.790075 C 162.930546 178.089777 162.298894 176.789737 161.710308 176.100213 C 160.920743 175.170074 159.589248 174.681662 158.36901 174.48055 " stroke="#365fa0" stroke-width="0.835" stroke-opacity="1" stroke-miterlimit="10"/><g clip-path="url(#c96e2ce3b2)"><path fill="#ef7e6b" d="M 250.929688 132.980469 C 250.277344 134.089844 250.398438 139.34375 251.191406 143.355469 C 253.097656 152.972656 254.425781 164.960938 256.144531 174.652344 C 262.597656 211.023438 267.160156 241.890625 274.65625 278.101562 C 274.941406 279.460938 275.3125 280.941406 276.441406 281.746094 C 277.445312 282.453125 278.773438 282.410156 280.003906 282.367188 C 289.613281 282.0625 309.3125 278.886719 310.78125 274.980469 C 312.9375 272.292969 298.222656 208.71875 296.917969 202.191406 C 294.269531 189.019531 292.441406 177.804688 289.992188 164.589844 C 288.503906 156.496094 286.097656 144.238281 284.128906 136.136719 C 281.472656 125.160156 277.914062 124.984375 256.40625 130.316406 C 253.519531 131.035156 251.429688 132.132812 250.929688 132.980469 Z M 250.929688 132.980469 " fill-opacity="1" fill-rule="nonzero"/></g><path stroke-linecap="round" transform="matrix(1.088415, 0, 0, 1.087707, -43.855562, -26.607947)" fill="none" stroke-linejoin="round" d="M 273.929121 167.441661 C 282.800967 164.180787 292.049652 161.918287 301.431128 160.718803 " stroke="#365fa0" stroke-width="0.624" stroke-opacity="1" stroke-miterlimit="10"/><path stroke-linecap="round" transform="matrix(1.088415, 0, 0, 1.087707, -43.855562, -26.607947)" fill="none" stroke-linejoin="round" d="M 277.500111 187.811345 C 287.129223 185.631444 296.751157 183.44077 306.380269 181.260869 " stroke="#365fa0" stroke-width="0.624" stroke-opacity="1" stroke-miterlimit="10"/><path fill="#fdd28a" d="M 265.351562 188.117188 C 267.234375 199.003906 269.878906 213.167969 272.003906 223.617188 C 272.058594 223.914062 272.15625 224.226562 272.40625 224.402344 C 272.667969 224.585938 273.027344 224.566406 273.339844 224.523438 C 280.253906 223.664062 286.890625 221.695312 293.804688 220.835938 C 290.601562 207.867188 289.949219 197.394531 286.75 184.417969 C 275.015625 186.441406 265.351562 188.117188 265.351562 188.117188 Z M 265.351562 188.117188 " fill-opacity="1" fill-rule="nonzero"/><path stroke-linecap="round" transform="matrix(1.088415, 0, 0, 1.087707, -43.855562, -26.607947)" fill="none" stroke-linejoin="round" d="M 289.838868 262.010579 C 299.679727 260.150301 309.520587 258.300797 319.361446 256.440519 " stroke="#365fa0" stroke-width="0.624" stroke-opacity="1" stroke-miterlimit="10"/><path stroke-linecap="round" transform="matrix(1.088415, 0, 0, 1.087707, -43.855562, -26.607947)" fill="none" stroke-linejoin="round" d="M 290.739691 239.040815 C 291.561557 238.218414 292.08913 237.119485 292.211154 235.970279 C 292.261399 236.519743 292.311644 237.090755 292.609526 237.550438 C 292.910996 238.01012 293.549827 238.301013 294.030744 238.03885 C 294.299914 237.891608 294.468594 237.600716 294.619329 237.33137 C 295.010523 236.591569 295.340705 235.830219 295.609875 235.04014 C 295.800089 235.711707 296.040548 236.451509 296.618366 236.828592 C 297.300264 237.281092 298.258509 237.090755 298.868628 236.548473 C 299.478747 236.009783 299.801751 235.20893 299.970431 234.41885 C 299.758684 235.309485 300.54825 236.22885 301.459839 236.361727 C 302.371428 236.491013 303.268662 235.999009 303.878781 235.309485 C 304.481722 234.619961 304.840616 233.750874 305.181564 232.899743 C 305.088252 233.621588 305.310766 234.400894 305.831162 234.90008 C 306.358735 235.399267 307.198546 235.589604 307.851732 235.259207 C 308.271637 235.050914 308.569519 234.659465 308.860223 234.289564 C 309.560065 233.380973 310.281441 232.429286 310.471654 231.301628 " stroke="#365fa0" stroke-width="0.624" stroke-opacity="1" stroke-miterlimit="10"/><g fill="#ef7e6b" fill-opacity="1"><g transform="translate(39.277049, 149.190543)"><g><path d="M 1.734375 -1.53125 C 1.296875 -1.175781 0.800781 -1.1875 0.25 -1.5625 C -0.289062 -1.945312 -0.476562 -2.425781 -0.3125 -3 C -0.226562 -3.3125 -0.078125 -3.726562 0.140625 -4.25 C 0.609375 -5.289062 0.5 -6.234375 -0.1875 -7.078125 L -19.703125 -31.34375 C -20.359375 -32.164062 -21.265625 -32.484375 -22.421875 -32.296875 C -22.972656 -32.191406 -23.40625 -32.132812 -23.71875 -32.125 C -24.289062 -32.039062 -24.703125 -32.304688 -24.953125 -32.921875 C -25.210938 -33.546875 -25.125 -34.035156 -24.6875 -34.390625 L -11.703125 -44.890625 C -7.972656 -47.929688 -4.523438 -50.273438 -1.359375 -51.921875 C 1.804688 -53.578125 4.59375 -54.4375 7 -54.5 C 9.414062 -54.5625 11.351562 -53.679688 12.8125 -51.859375 C 14.269531 -50.046875 14.707031 -47.984375 14.125 -45.671875 C 13.539062 -43.367188 12.140625 -40.84375 9.921875 -38.09375 C 13.898438 -40.394531 17.40625 -41.640625 20.4375 -41.828125 C 23.476562 -42.023438 26 -40.875 28 -38.375 C 29.726562 -36.238281 30.363281 -33.800781 29.90625 -31.0625 C 29.457031 -28.332031 28.015625 -25.425781 25.578125 -22.34375 C 23.148438 -19.257812 19.914062 -16.09375 15.875 -12.84375 Z M 10.859375 -15.390625 C 11.160156 -15.003906 11.539062 -14.789062 12 -14.75 C 12.457031 -14.707031 12.867188 -14.835938 13.234375 -15.140625 C 16.554688 -17.804688 18.515625 -20.320312 19.109375 -22.6875 C 19.710938 -25.050781 19.046875 -27.4375 17.109375 -29.84375 C 15.203125 -32.21875 13.015625 -33.347656 10.546875 -33.234375 C 8.078125 -33.128906 5.210938 -31.769531 1.953125 -29.15625 C 1.585938 -28.851562 1.378906 -28.472656 1.328125 -28.015625 C 1.273438 -27.566406 1.410156 -27.140625 1.734375 -26.734375 Z M -8.5625 -39.53125 L -2.546875 -32.0625 C -2.234375 -31.675781 -1.847656 -31.457031 -1.390625 -31.40625 C -0.941406 -31.363281 -0.535156 -31.492188 -0.171875 -31.796875 C 2.160156 -33.710938 3.53125 -35.566406 3.9375 -37.359375 C 4.34375 -39.160156 3.816406 -40.972656 2.359375 -42.796875 C 0.847656 -44.671875 -0.804688 -45.609375 -2.609375 -45.609375 C -4.410156 -45.609375 -6.535156 -44.65625 -8.984375 -42.75 C -9.859375 -42.039062 -9.925781 -41.234375 -9.1875 -40.328125 Z M -8.5625 -39.53125 "/></g></g></g><g fill="#ef7e6b" fill-opacity="1"><g transform="translate(80.228984, 117.81834)"><g><path d="M -5.296875 -12.109375 C -7.316406 -16.191406 -7.582031 -19.929688 -6.09375 -23.328125 C -4.613281 -26.734375 -1.789062 -29.476562 2.375 -31.5625 C 6.59375 -33.65625 10.476562 -34.316406 14.03125 -33.546875 C 17.582031 -32.773438 20.421875 -30.25 22.546875 -25.96875 C 24.679688 -21.695312 24.984375 -17.90625 23.453125 -14.59375 C 21.929688 -11.289062 19.0625 -8.59375 14.84375 -6.5 C 10.675781 -4.414062 6.785156 -3.8125 3.171875 -4.6875 C -0.441406 -5.5625 -3.265625 -8.035156 -5.296875 -12.109375 Z M 2.21875 -27.828125 C 1.539062 -27.328125 1.21875 -26.679688 1.25 -25.890625 C 1.28125 -25.109375 1.707031 -24.039062 2.53125 -22.6875 C 3.351562 -21.332031 4.582031 -19.523438 6.21875 -17.265625 C 7.84375 -15.015625 9.175781 -13.285156 10.21875 -12.078125 C 11.257812 -10.867188 12.148438 -10.125 12.890625 -9.84375 C 13.640625 -9.570312 14.351562 -9.6875 15.03125 -10.1875 C 15.738281 -10.707031 16.0625 -11.363281 16 -12.15625 C 15.9375 -12.945312 15.503906 -14.023438 14.703125 -15.390625 C 13.898438 -16.753906 12.6875 -18.5625 11.0625 -20.8125 C 9.425781 -23.070312 8.082031 -24.796875 7.03125 -25.984375 C 5.976562 -27.179688 5.085938 -27.914062 4.359375 -28.1875 C 3.640625 -28.46875 2.925781 -28.347656 2.21875 -27.828125 Z M 2.21875 -27.828125 "/></g></g></g><g fill="#ef7e6b" fill-opacity="1"><g transform="translate(114.967798, 101.041362)"><g><path d="M -2.96875 -12.890625 C -4.207031 -17.265625 -3.78125 -20.988281 -1.6875 -24.0625 C 0.394531 -27.132812 3.675781 -29.304688 8.15625 -30.578125 C 12.675781 -31.859375 16.613281 -31.789062 19.96875 -30.375 C 23.320312 -28.96875 25.648438 -25.96875 26.953125 -21.375 C 28.265625 -16.769531 27.863281 -12.984375 25.75 -10.015625 C 23.632812 -7.054688 20.316406 -4.9375 15.796875 -3.65625 C 11.316406 -2.382812 7.378906 -2.507812 3.984375 -4.03125 C 0.597656 -5.550781 -1.71875 -8.503906 -2.96875 -12.890625 Z M 7.3125 -26.953125 C 6.550781 -26.578125 6.113281 -26 6 -25.21875 C 5.882812 -24.445312 6.101562 -23.316406 6.65625 -21.828125 C 7.21875 -20.347656 8.097656 -18.347656 9.296875 -15.828125 C 10.472656 -13.316406 11.460938 -11.367188 12.265625 -9.984375 C 13.066406 -8.609375 13.804688 -7.71875 14.484375 -7.3125 C 15.160156 -6.90625 15.882812 -6.882812 16.65625 -7.25 C 17.445312 -7.632812 17.882812 -8.21875 17.96875 -9 C 18.0625 -9.789062 17.835938 -10.929688 17.296875 -12.421875 C 16.753906 -13.910156 15.890625 -15.910156 14.703125 -18.421875 C 13.515625 -20.941406 12.507812 -22.882812 11.6875 -24.25 C 10.875 -25.625 10.140625 -26.507812 9.484375 -26.90625 C 8.828125 -27.3125 8.101562 -27.328125 7.3125 -26.953125 Z M 7.3125 -26.953125 "/></g></g></g><g fill="#ef7e6b" fill-opacity="1"><g transform="translate(151.867268, 90.638269)"><g><path d="M -1.328125 -37.140625 C -1.734375 -37.148438 -2.046875 -37.3125 -2.265625 -37.625 C -2.484375 -37.945312 -2.566406 -38.316406 -2.515625 -38.734375 C -2.460938 -39.148438 -2.257812 -39.488281 -1.90625 -39.75 C -0.71875 -40.550781 0.820312 -41.226562 2.71875 -41.78125 C 4.613281 -42.34375 6.460938 -42.691406 8.265625 -42.828125 C 9.773438 -42.929688 10.992188 -42.894531 11.921875 -42.71875 C 12.859375 -42.539062 13.5625 -42.0625 14.03125 -41.28125 C 14.507812 -40.507812 14.8125 -39.28125 14.9375 -37.59375 L 16.3125 -18.96875 C 17.695312 -19.59375 18.84375 -20.351562 19.75 -21.25 C 20.664062 -22.144531 21.46875 -23.070312 22.15625 -24.03125 C 22.851562 -25 23.570312 -25.910156 24.3125 -26.765625 C 25.050781 -27.628906 25.953125 -28.375 27.015625 -29 C 28.085938 -29.632812 29.445312 -30.023438 31.09375 -30.171875 C 32.332031 -30.335938 33.535156 -30.238281 34.703125 -29.875 C 35.878906 -29.507812 36.867188 -28.90625 37.671875 -28.0625 C 38.472656 -27.21875 38.882812 -26.132812 38.90625 -24.8125 C 38.957031 -23.539062 38.597656 -22.476562 37.828125 -21.625 C 37.054688 -20.78125 36.109375 -20.367188 34.984375 -20.390625 C 33.929688 -20.429688 33.085938 -20.625 32.453125 -20.96875 C 31.816406 -21.320312 31.300781 -21.71875 30.90625 -22.15625 C 30.519531 -22.59375 30.128906 -22.976562 29.734375 -23.3125 C 29.335938 -23.644531 28.816406 -23.785156 28.171875 -23.734375 C 27.378906 -23.679688 26.671875 -23.378906 26.046875 -22.828125 C 25.429688 -22.285156 24.796875 -21.617188 24.140625 -20.828125 C 23.492188 -20.035156 22.707031 -19.25 21.78125 -18.46875 C 22.78125 -18.65625 23.695312 -18.78125 24.53125 -18.84375 C 27.070312 -19.03125 29.164062 -18.582031 30.8125 -17.5 C 32.457031 -16.414062 33.851562 -14.472656 35 -11.671875 L 36.859375 -7.40625 C 37.078125 -6.894531 37.394531 -6.476562 37.8125 -6.15625 C 38.238281 -5.832031 38.675781 -5.664062 39.125 -5.65625 C 39.382812 -5.632812 39.628906 -5.613281 39.859375 -5.59375 C 40.097656 -5.582031 40.296875 -5.523438 40.453125 -5.421875 C 40.960938 -5.117188 41.144531 -4.640625 41 -3.984375 C 40.863281 -3.328125 40.492188 -2.976562 39.890625 -2.9375 L 28.859375 -2.125 C 28.035156 -2.0625 27.269531 -2.25 26.5625 -2.6875 C 25.851562 -3.132812 25.316406 -3.757812 24.953125 -4.5625 C 24.671875 -5.25 24.328125 -6.046875 23.921875 -6.953125 C 23.515625 -7.867188 23.019531 -9.003906 22.4375 -10.359375 C 21.5625 -12.492188 20.65625 -13.789062 19.71875 -14.25 C 18.78125 -14.707031 17.75 -14.835938 16.625 -14.640625 L 17.203125 -6.8125 C 17.234375 -6.320312 17.40625 -5.867188 17.71875 -5.453125 C 18.039062 -5.046875 18.421875 -4.707031 18.859375 -4.4375 C 19.046875 -4.375 19.21875 -4.289062 19.375 -4.1875 C 19.539062 -4.09375 19.707031 -4 19.875 -3.90625 C 20.40625 -3.601562 20.585938 -3.125 20.421875 -2.46875 C 20.265625 -1.8125 19.894531 -1.460938 19.3125 -1.421875 L 3.203125 -0.234375 C 2.648438 -0.191406 2.242188 -0.484375 1.984375 -1.109375 C 1.734375 -1.734375 1.84375 -2.234375 2.3125 -2.609375 C 2.488281 -2.734375 2.660156 -2.859375 2.828125 -2.984375 C 3.003906 -3.109375 3.179688 -3.234375 3.359375 -3.359375 C 4.347656 -3.921875 4.800781 -4.765625 4.71875 -5.890625 L 2.46875 -36.390625 C 2.425781 -36.992188 2.191406 -37.332031 1.765625 -37.40625 C 1.335938 -37.488281 0.847656 -37.460938 0.296875 -37.328125 C -0.242188 -37.191406 -0.785156 -37.128906 -1.328125 -37.140625 Z M -1.328125 -37.140625 "/></g></g></g><g fill="#ef7e6b" fill-opacity="1"><g transform="translate(197.710979, 87.453824)"><g><path d="M 2.28125 0.359375 C 1.726562 0.273438 1.410156 -0.09375 1.328125 -0.75 C 1.242188 -1.414062 1.472656 -1.875 2.015625 -2.125 C 2.285156 -2.269531 2.691406 -2.4375 3.234375 -2.625 C 4.304688 -2.988281 4.929688 -3.710938 5.109375 -4.796875 L 9.84375 -34.25 C 10.019531 -35.363281 9.648438 -36.238281 8.734375 -36.875 C 8.285156 -37.21875 7.953125 -37.503906 7.734375 -37.734375 C 7.316406 -38.097656 7.226562 -38.566406 7.46875 -39.140625 C 7.71875 -39.710938 8.09375 -40.015625 8.59375 -40.046875 L 23.25 -37.703125 C 24.363281 -37.515625 25.164062 -36.925781 25.65625 -35.9375 L 40.21875 -5.953125 L 43.890625 -28.78125 C 44.066406 -29.894531 43.691406 -30.769531 42.765625 -31.40625 C 42.316406 -31.757812 41.984375 -32.046875 41.765625 -32.265625 C 41.328125 -32.671875 41.25 -33.175781 41.53125 -33.78125 C 41.820312 -34.382812 42.242188 -34.644531 42.796875 -34.5625 L 50.328125 -33.34375 C 50.921875 -33.25 51.257812 -32.867188 51.34375 -32.203125 C 51.4375 -31.535156 51.210938 -31.082031 50.671875 -30.84375 C 50.503906 -30.75 50.332031 -30.65625 50.15625 -30.5625 C 49.988281 -30.476562 49.804688 -30.414062 49.609375 -30.375 C 48.554688 -29.925781 47.945312 -29.179688 47.78125 -28.140625 L 47.6875 -27.59375 L 43.046875 1.3125 C 42.878906 2.351562 43.226562 3.242188 44.09375 3.984375 C 44.269531 4.085938 44.421875 4.207031 44.546875 4.34375 C 44.679688 4.488281 44.816406 4.628906 44.953125 4.765625 C 45.390625 5.179688 45.523438 5.695312 45.359375 6.3125 C 45.203125 6.9375 44.695312 7.179688 43.84375 7.046875 L 31.8125 5.109375 C 30.695312 4.929688 29.894531 4.328125 29.40625 3.296875 L 13.21875 -30.390625 L 9 -4.15625 C 8.832031 -3.113281 9.1875 -2.222656 10.0625 -1.484375 C 10.207031 -1.378906 10.351562 -1.253906 10.5 -1.109375 C 10.644531 -0.972656 10.78125 -0.835938 10.90625 -0.703125 C 11.34375 -0.285156 11.414062 0.21875 11.125 0.8125 C 10.832031 1.414062 10.394531 1.671875 9.8125 1.578125 Z M 2.28125 0.359375 "/></g></g></g><g fill="#ef7e6b" fill-opacity="1"><g transform="translate(248.294144, 96.826562)"><g><path d="M 5.4375 -12.046875 C 6.476562 -14.910156 8.046875 -17.050781 10.140625 -18.46875 C 12.234375 -19.894531 14.625 -20.644531 17.3125 -20.71875 C 20.007812 -20.789062 22.8125 -20.257812 25.71875 -19.125 C 28.175781 -18.164062 30.175781 -16.976562 31.71875 -15.5625 C 33.257812 -14.15625 34.34375 -12.65625 34.96875 -11.0625 C 35.601562 -9.46875 35.757812 -7.90625 35.4375 -6.375 C 35.101562 -4.769531 34.328125 -3.59375 33.109375 -2.84375 C 31.890625 -2.09375 30.421875 -1.644531 28.703125 -1.5 C 26.984375 -1.363281 25.226562 -1.453125 23.4375 -1.765625 C 21.644531 -2.085938 20.03125 -2.53125 18.59375 -3.09375 C 17.675781 -3.445312 16.890625 -3.8125 16.234375 -4.1875 C 16.222656 -1.96875 16.640625 -0.21875 17.484375 1.0625 C 18.335938 2.34375 19.507812 3.296875 21 3.921875 C 22.644531 4.566406 24.234375 4.679688 25.765625 4.265625 C 27.304688 3.859375 28.578125 2.898438 29.578125 1.390625 C 30.304688 0.335938 31.140625 0.0546875 32.078125 0.546875 C 33.003906 1.066406 33.117188 1.898438 32.421875 3.046875 C 30.492188 6.015625 28.007812 7.71875 24.96875 8.15625 C 21.925781 8.601562 18.53125 8.09375 14.78125 6.625 C 10.445312 4.9375 7.414062 2.472656 5.6875 -0.765625 C 3.96875 -4.003906 3.882812 -7.765625 5.4375 -12.046875 Z M 23.0625 -16.671875 C 22.238281 -16.835938 21.378906 -16.523438 20.484375 -15.734375 C 19.597656 -14.953125 18.796875 -13.8125 18.078125 -12.3125 C 17.367188 -10.8125 16.859375 -9.070312 16.546875 -7.09375 C 17.316406 -6.71875 18.203125 -6.390625 19.203125 -6.109375 C 20.203125 -5.835938 21.179688 -5.769531 22.140625 -5.90625 C 23.109375 -6.039062 23.882812 -6.492188 24.46875 -7.265625 C 25.382812 -8.453125 25.910156 -9.734375 26.046875 -11.109375 C 26.179688 -12.484375 25.992188 -13.707031 25.484375 -14.78125 C 24.972656 -15.851562 24.164062 -16.484375 23.0625 -16.671875 Z M 23.0625 -16.671875 "/></g></g></g><g fill="#ef7e6b" fill-opacity="1"><g transform="translate(283.520807, 111.126578)"><g><path d="M 3.59375 -3.75 C 3.726562 -4.769531 4.109375 -5.585938 4.734375 -6.203125 C 5.359375 -6.816406 6.085938 -7.140625 6.921875 -7.171875 C 7.753906 -7.203125 8.597656 -6.863281 9.453125 -6.15625 C 10.203125 -5.507812 10.679688 -4.820312 10.890625 -4.09375 C 11.109375 -3.375 11.195312 -2.601562 11.15625 -1.78125 C 11.113281 -0.96875 11.113281 -0.117188 11.15625 0.765625 C 11.207031 1.648438 11.441406 2.566406 11.859375 3.515625 C 12.273438 4.460938 13.039062 5.414062 14.15625 6.375 C 15.289062 7.34375 16.257812 7.820312 17.0625 7.8125 C 17.863281 7.800781 18.488281 7.441406 18.9375 6.734375 C 19.300781 6.128906 19.265625 5.335938 18.828125 4.359375 C 18.390625 3.378906 17.734375 2.273438 16.859375 1.046875 C 15.984375 -0.179688 15.0625 -1.492188 14.09375 -2.890625 C 13.125 -4.285156 12.273438 -5.71875 11.546875 -7.1875 C 10.816406 -8.65625 10.363281 -10.101562 10.1875 -11.53125 C 10.007812 -12.96875 10.316406 -14.328125 11.109375 -15.609375 C 12.003906 -17.054688 13.285156 -18.015625 14.953125 -18.484375 C 16.617188 -18.960938 18.546875 -18.914062 20.734375 -18.34375 C 22.929688 -17.78125 25.238281 -16.671875 27.65625 -15.015625 C 30.96875 -12.773438 33.300781 -10.613281 34.65625 -8.53125 C 36.019531 -6.457031 36.394531 -4.660156 35.78125 -3.140625 C 35.394531 -2.140625 34.71875 -1.5625 33.75 -1.40625 C 32.789062 -1.257812 31.882812 -1.535156 31.03125 -2.234375 C 30.15625 -2.953125 29.601562 -3.734375 29.375 -4.578125 C 29.144531 -5.421875 29.003906 -6.300781 28.953125 -7.21875 C 28.898438 -8.144531 28.707031 -9.054688 28.375 -9.953125 C 28.039062 -10.847656 27.328125 -11.695312 26.234375 -12.5 C 25.378906 -13.113281 24.546875 -13.457031 23.734375 -13.53125 C 22.921875 -13.613281 22.300781 -13.347656 21.875 -12.734375 C 21.394531 -12.015625 21.363281 -11.191406 21.78125 -10.265625 C 22.207031 -9.347656 22.898438 -8.328125 23.859375 -7.203125 C 24.828125 -6.078125 25.851562 -4.890625 26.9375 -3.640625 C 28.019531 -2.390625 28.984375 -1.09375 29.828125 0.25 C 30.671875 1.59375 31.21875 2.957031 31.46875 4.34375 C 31.71875 5.738281 31.457031 7.125 30.6875 8.5 C 29.21875 11.257812 26.945312 12.695312 23.875 12.8125 C 20.8125 12.9375 17.140625 11.671875 12.859375 9.015625 C 12.085938 8.535156 11.144531 7.851562 10.03125 6.96875 C 8.925781 6.082031 7.84375 5.054688 6.78125 3.890625 C 5.71875 2.722656 4.863281 1.488281 4.21875 0.1875 C 3.582031 -1.101562 3.375 -2.414062 3.59375 -3.75 Z M 3.59375 -3.75 "/></g></g></g><g fill="#ef7e6b" fill-opacity="1"><g transform="translate(315.182617, 131.503281)"><g><path d="M 17.859375 -15.5 C 17.148438 -16.113281 17.101562 -16.773438 17.71875 -17.484375 L 17.75 -17.515625 C 18.300781 -18.140625 18.898438 -18.21875 19.546875 -17.75 L 19.53125 -17.828125 C 20.601562 -16.929688 21.8125 -16.539062 23.15625 -16.65625 C 24.507812 -16.769531 25.878906 -17.21875 27.265625 -18 C 28.660156 -18.78125 29.925781 -19.695312 31.0625 -20.75 C 31.4375 -21.132812 31.867188 -21.359375 32.359375 -21.421875 C 32.859375 -21.492188 33.328125 -21.410156 33.765625 -21.171875 L 39.109375 -18.109375 C 39.578125 -17.847656 39.84375 -17.523438 39.90625 -17.140625 C 39.96875 -16.753906 39.828125 -16.363281 39.484375 -15.96875 L 31.6875 -7.125 L 35.453125 -3.8125 C 36.160156 -3.1875 36.191406 -2.507812 35.546875 -1.78125 C 34.929688 -1.070312 34.269531 -1.03125 33.5625 -1.65625 L 29.796875 -4.96875 L 18.15625 8.25 C 17.457031 9.039062 17.132812 9.703125 17.1875 10.234375 C 17.238281 10.773438 17.488281 11.25 17.9375 11.65625 C 18.5 12.144531 19.195312 12.554688 20.03125 12.890625 C 20.863281 13.234375 21.472656 13.578125 21.859375 13.921875 C 22.171875 14.203125 22.3125 14.472656 22.28125 14.734375 C 22.207031 15.160156 21.722656 15.484375 20.828125 15.703125 C 19.929688 15.921875 18.707031 15.742188 17.15625 15.171875 C 15.601562 14.609375 13.753906 13.359375 11.609375 11.421875 C 9.210938 9.222656 7.859375 7.019531 7.546875 4.8125 C 7.234375 2.613281 8.023438 0.4375 9.921875 -1.71875 L 20.21875 -13.40625 Z M 17.859375 -15.5 "/></g></g></g></svg>