<svg xmlns="http://www.w3.org/2000/svg" xmlns:xlink="http://www.w3.org/1999/xlink" width="150" zoomAndPan="magnify" viewBox="0 0 112.5 112.499997" height="150" preserveAspectRatio="xMidYMid meet" version="1.0"><defs><g/><clipPath id="dc8bb7b857"><path d="M 20 74 L 77 74 L 77 84.378906 L 20 84.378906 Z M 20 74 " clip-rule="nonzero"/></clipPath><clipPath id="222c80d4eb"><path d="M 75 37.339844 L 93.890625 37.339844 L 93.890625 84.378906 L 75 84.378906 Z M 75 37.339844 " clip-rule="nonzero"/></clipPath></defs><g clip-path="url(#dc8bb7b857)"><path fill="#fdd28a" d="M 22.238281 84.195312 C 20.050781 80.921875 20.371094 76.617188 22.089844 74.265625 C 39.316406 74.363281 56.621094 74.164062 73.847656 74.265625 C 74.191406 74.265625 74.554688 74.273438 74.855469 74.441406 C 75.25 74.667969 75.445312 75.121094 75.589844 75.550781 C 76.089844 76.992188 76.511719 82.492188 74.859375 83.464844 C 74.582031 83.625 74.242188 83.644531 73.914062 83.65625 C 59.683594 84.179688 45.4375 84.300781 31.199219 84.167969 Z M 22.238281 84.195312 " fill-opacity="1" fill-rule="nonzero"/></g><path stroke-linecap="round" transform="matrix(0.326728, 0, 0, 0.324868, -13.26202, -7.947062)" fill="none" stroke-linejoin="round" d="M 121.339136 281.645992 C 118.565418 272.014684 118.517596 261.60181 121.195668 251.934429 " stroke="#365fa0" stroke-width="0.835" stroke-opacity="1" stroke-miterlimit="10"/><path stroke-linecap="round" transform="matrix(0.326728, 0, 0, 0.324868, -13.26202, -7.947062)" fill="none" stroke-linejoin="round" d="M 238.624374 281.742185 C 240.740529 271.762178 240.824219 263.898414 238.935222 253.87031 " stroke="#365fa0" stroke-width="0.835" stroke-opacity="1" stroke-miterlimit="10"/><path stroke-linecap="round" transform="matrix(0.326728, 0, 0, 0.324868, -13.26202, -7.947062)" fill="none" stroke-linejoin="round" d="M 231.092294 281.104908 C 232.84978 273.361384 232.825868 263.694004 230.984693 255.962504 " stroke="#365fa0" stroke-width="0.835" stroke-opacity="1" stroke-miterlimit="10"/><path stroke-linecap="round" transform="matrix(0.326728, 0, 0, 0.324868, -13.26202, -7.947062)" fill="none" stroke-linejoin="round" d="M 131.764491 271.73813 C 134.370829 270.499647 136.475029 268.287212 137.610819 265.641909 C 136.439162 267.481597 137.228237 270.59584 139.404171 270.788226 C 140.87472 270.932515 142.118111 269.706056 142.823496 268.419477 C 143.516926 267.132898 143.911463 265.653933 144.855962 264.511643 C 144.329912 266.014656 144.28209 267.673983 144.700538 269.213068 C 144.796184 269.573791 144.939652 269.946538 145.2505 270.150948 C 145.645037 270.415478 146.147176 270.307262 146.589536 270.18702 C 149.925171 269.24914 152.830402 266.916464 154.480286 263.874365 C 154.085749 265.473571 154.085749 267.16897 154.504197 268.744128 C 154.63571 269.261164 154.874824 269.826297 155.388918 269.994635 C 155.807367 270.138924 156.261683 269.958562 156.644264 269.754153 C 158.879977 268.57579 160.709196 266.651934 161.761296 264.35533 C 161.570005 265.545716 161.39067 266.784199 161.737385 267.938513 C 162.0841 269.092827 163.160111 270.114876 164.355679 270.018683 C 164.965419 269.970587 165.503425 269.645936 166.005563 269.309261 C 167.930428 268.034706 169.616179 266.411452 170.979127 264.559739 C 171.194329 265.593812 170.799792 266.651934 170.740013 267.698031 C 170.680235 268.744128 171.194329 270.030707 172.246429 270.1269 C 172.856169 270.18702 173.430042 269.814273 173.908269 269.441526 C 175.582064 268.154947 177.100436 266.688006 178.439472 265.064752 C 178.14058 265.894415 177.853644 266.772175 177.985156 267.649934 C 178.104713 268.51567 178.822054 269.369381 179.694819 269.357357 C 180.304559 269.345333 180.842564 268.948538 181.308836 268.563766 C 182.564182 267.517669 183.735839 266.399427 184.835762 265.221065 C 183.771706 266.146921 184.022776 268.058754 185.14661 268.912465 C 186.294355 269.754153 187.96815 269.585815 189.115896 268.756152 C 190.263641 267.926489 190.921204 266.567765 191.196185 265.184993 " stroke="#365fa0" stroke-width="0.835" stroke-opacity="1" stroke-miterlimit="10"/><path fill="#d7c8b5" d="M 26.328125 74.222656 C 25.386719 72.875 25.460938 69.996094 26.207031 68.652344 C 40.601562 68.710938 54.902344 67.859375 69.296875 67.917969 C 69.589844 67.917969 69.894531 67.917969 70.144531 68.015625 C 70.476562 68.144531 70.636719 68.398438 70.757812 68.636719 C 71.175781 69.445312 71.46875 73.636719 70.085938 74.183594 C 69.855469 74.273438 69.570312 74.285156 69.296875 74.289062 C 57.40625 74.582031 45.722656 74.285156 33.824219 74.207031 Z M 26.328125 74.222656 " fill-opacity="1" fill-rule="nonzero"/><path stroke-linecap="round" transform="matrix(0.326728, 0, 0, 0.324868, -13.26202, -7.947062)" fill="none" stroke-linejoin="round" d="M 142.070288 248.880307 C 145.800461 249.204958 150.391443 249.50556 153.535787 247.485511 C 155.329139 246.331197 156.895334 244.359243 155.544342 242.363242 C 153.870546 239.862228 150.200152 239.874252 147.534035 239.717939 C 142.464826 239.441384 136.283739 239.381264 131.955782 242.423362 C 126.372478 246.331197 139.595462 248.663873 142.070288 248.880307 Z M 142.070288 248.880307 " stroke="#365fa0" stroke-width="0.835" stroke-opacity="1" stroke-miterlimit="10"/><path stroke-linecap="round" transform="matrix(0.326728, 0, 0, 0.324868, -13.26202, -7.947062)" fill="none" stroke-linejoin="round" d="M 161.091778 249.168885 C 160.757019 246.090714 160.42226 243.00052 160.087501 239.922349 " stroke="#365fa0" stroke-width="0.835" stroke-opacity="1" stroke-miterlimit="10"/><path stroke-linecap="round" transform="matrix(0.326728, 0, 0, 0.324868, -13.26202, -7.947062)" fill="none" stroke-linejoin="round" d="M 164.487192 249.758066 C 164.032876 246.114763 163.781806 242.435387 163.757895 238.756011 " stroke="#365fa0" stroke-width="0.835" stroke-opacity="1" stroke-miterlimit="10"/><path stroke-linecap="round" transform="matrix(0.326728, 0, 0, 0.324868, -13.26202, -7.947062)" fill="none" stroke-linejoin="round" d="M 240.059056 248.9765 C 240.118834 245.958449 240.011233 242.928375 239.712341 239.922349 " stroke="#365fa0" stroke-width="0.835" stroke-opacity="1" stroke-miterlimit="10"/><path stroke-linecap="round" transform="matrix(0.326728, 0, 0, 0.324868, -13.26202, -7.947062)" fill="none" stroke-linejoin="round" d="M 243.944652 248.784114 C 243.741406 245.044617 243.442514 241.305121 243.024065 237.577648 " stroke="#365fa0" stroke-width="0.835" stroke-opacity="1" stroke-miterlimit="10"/><path fill="#ef7e6b" d="M 20.589844 68.613281 C 18.527344 64.554688 18.828125 59.230469 20.453125 56.316406 C 36.683594 56.441406 52.992188 56.1875 69.222656 56.316406 C 69.550781 56.320312 69.894531 56.324219 70.175781 56.539062 C 70.550781 56.820312 70.734375 57.378906 70.871094 57.910156 C 71.335938 59.695312 71.738281 66.507812 70.179688 67.707031 C 69.917969 67.914062 69.597656 67.933594 69.292969 67.945312 C 55.882812 68.59375 42.457031 68.746094 29.042969 68.578125 Z M 20.589844 68.613281 " fill-opacity="1" fill-rule="nonzero"/><path stroke-linecap="round" transform="matrix(0.326728, 0, 0, 0.324868, -13.26202, -7.947062)" fill="none" stroke-linejoin="round" d="M 115.624321 226.407255 C 121.889098 226.359158 128.153875 226.33511 134.418652 226.33511 C 133.964336 219.83007 133.521976 213.325029 133.06766 206.819988 C 133.055704 206.567482 133.031793 206.302952 132.864414 206.098542 C 132.661167 205.834012 132.278585 205.785915 131.943826 205.737819 C 126.025764 205.18471 120.095746 205.064469 114.165727 205.365071 C 114.727644 210.294954 115.636276 215.212813 115.636276 220.166744 Z M 115.624321 226.407255 " stroke="#365fa0" stroke-width="0.835" stroke-opacity="1" stroke-miterlimit="10"/><path stroke-linecap="round" transform="matrix(0.326728, 0, 0, 0.324868, -13.26202, -7.947062)" fill="none" stroke-linejoin="round" d="M 142.142023 216.042477 C 142.345269 217.629658 143.995153 218.880165 145.573303 218.651707 C 147.151453 218.423249 148.382888 216.751899 148.119863 215.164717 C 148.956761 216.655706 150.188196 218.07455 151.861992 218.375153 C 153.535787 218.675755 155.496519 217.244887 155.173716 215.585561 C 156.21386 216.87214 157.732231 217.978357 159.37016 217.797996 C 161.008088 217.617634 162.371036 215.585561 161.402626 214.238861 C 162.406903 215.717826 163.554648 217.305008 165.264311 217.785972 C 166.985929 218.27896 169.245553 216.848092 168.815148 215.11662 C 169.795514 216.727851 171.337797 218.002406 173.119194 218.639683 C 173.752845 217.244887 174.123471 215.741874 174.207161 214.214813 C 175.964646 215.633657 177.052613 218.615635 179.264414 218.21884 C 180.388248 218.01443 181.165368 216.884164 181.272969 215.741874 C 181.368614 214.599584 180.926254 213.493366 180.388248 212.483342 " stroke="#365fa0" stroke-width="0.835" stroke-opacity="1" stroke-miterlimit="10"/><path stroke-linecap="round" transform="matrix(0.326728, 0, 0, 0.324868, -13.26202, -7.947062)" fill="none" stroke-linejoin="round" d="M 214.067404 225.854146 C 214.497808 219.866142 214.593454 213.854089 214.330429 207.854061 " stroke="#365fa0" stroke-width="0.835" stroke-opacity="1" stroke-miterlimit="10"/><path stroke-linecap="round" transform="matrix(0.326728, 0, 0, 0.324868, -13.26202, -7.947062)" fill="none" stroke-linejoin="round" d="M 220.989743 225.204844 C 220.631073 219.204816 220.260447 213.204788 219.901776 207.216784 " stroke="#365fa0" stroke-width="0.835" stroke-opacity="1" stroke-miterlimit="10"/><path stroke-linecap="round" transform="matrix(0.326728, 0, 0, 0.324868, -13.26202, -7.947062)" fill="none" stroke-linejoin="round" d="M 226.070908 225.325085 C 226.154598 219.325057 226.250243 212.795968 226.345889 206.79594 C 233.304095 206.79594 240.955732 208.14264 248.284565 207.842037 C 249.396443 210.331027 249.898582 213.493366 249.87467 216.066525 C 249.862715 219.144696 249.396443 221.70583 248.153052 224.784001 C 242.545837 224.699832 236.914711 224.784001 231.319452 225.33711 L 226.070908 225.33711 Z M 226.070908 225.325085 " stroke="#365fa0" stroke-width="0.835" stroke-opacity="1" stroke-miterlimit="10"/><path fill="#98d4e1" d="M 28.765625 56.300781 C 26.863281 53.257812 27.136719 48.8125 28.730469 46.683594 C 44.199219 47.09375 59.746094 47.21875 75.214844 47.628906 C 75.527344 47.636719 75.851562 47.648438 76.121094 47.808594 C 76.46875 48.023438 76.636719 48.445312 76.761719 48.839844 C 77.179688 50.171875 77.457031 55.226562 75.953125 56.085938 C 75.699219 56.234375 75.394531 56.242188 75.105469 56.246094 C 62.3125 56.46875 50.191406 56.675781 37.40625 56.296875 Z M 28.765625 56.300781 " fill-opacity="1" fill-rule="nonzero"/><path stroke-linecap="round" transform="matrix(0.326728, 0, 0, 0.324868, -13.26202, -7.947062)" fill-opacity="1" fill="#98d4e1" fill-rule="nonzero" stroke-linejoin="round" d="M 270.450398 197.5975 C 246.19232 198.018343 222.723317 198.427163 199.063023 198.403115 C 184.53687 198.379067 169.950938 198.198705 155.066114 197.753813 " stroke="#365fa0" stroke-width="0.835" stroke-opacity="1" stroke-miterlimit="10"/><path stroke-linecap="round" transform="matrix(0.326728, 0, 0, 0.324868, -13.26202, -7.947062)" fill="none" stroke-linejoin="round" d="M 128.524501 168.162491 C 156.070392 168.895962 183.688016 169.328829 211.305641 169.821818 C 220.105023 169.966107 228.880493 170.134444 237.655964 170.314806 C 248.714969 170.53124 259.762019 170.783746 270.797113 171.072325 C 271.753568 171.096373 272.745889 171.132445 273.570831 171.625433 C 274.634887 172.286759 275.148981 173.585362 275.531563 174.799797 " stroke="#365fa0" stroke-width="0.835" stroke-opacity="1" stroke-miterlimit="10"/><path stroke-linecap="round" transform="matrix(0.326728, 0, 0, 0.324868, -13.26202, -7.947062)" fill="none" stroke-linejoin="round" d="M 171.38562 190.936146 C 171.122595 185.886022 170.871526 180.835898 170.608501 175.785774 " stroke="#365fa0" stroke-width="0.835" stroke-opacity="1" stroke-miterlimit="10"/><path stroke-linecap="round" transform="matrix(0.326728, 0, 0, 0.324868, -13.26202, -7.947062)" fill="none" stroke-linejoin="round" d="M 175.020147 191.982243 C 174.649521 185.994239 174.506053 179.982186 174.601698 173.970134 " stroke="#365fa0" stroke-width="0.835" stroke-opacity="1" stroke-miterlimit="10"/><path stroke-linecap="round" transform="matrix(0.326728, 0, 0, 0.324868, -13.26202, -7.947062)" fill="none" stroke-linejoin="round" d="M 256.259004 192.367014 C 256.426384 187.425107 256.402472 182.471176 256.18727 177.529269 " stroke="#365fa0" stroke-width="0.835" stroke-opacity="1" stroke-miterlimit="10"/><path stroke-linecap="round" transform="matrix(0.326728, 0, 0, 0.324868, -13.26202, -7.947062)" fill="none" stroke-linejoin="round" d="M 260.431537 192.138556 C 260.335892 186.006263 260.144601 179.885993 259.821797 173.777748 " stroke="#365fa0" stroke-width="0.835" stroke-opacity="1" stroke-miterlimit="10"/><path stroke-linecap="round" transform="matrix(0.326728, 0, 0, 0.324868, -13.26202, -7.947062)" fill-opacity="1" fill="#d7c8b5" fill-rule="nonzero" stroke-linejoin="round" d="M 181.033855 192.968219 C 180.974077 187.040336 181.46426 180.439102 181.404481 174.511219 C 190.945115 174.823845 208.101518 175.112424 218.072557 175.316834 C 218.658385 181.364958 218.03669 186.884022 217.689975 193.725738 C 208.830815 193.545376 198.895644 193.352991 186.581291 193.08846 Z M 181.033855 192.968219 " stroke="#365fa0" stroke-width="0.835" stroke-opacity="1" stroke-miterlimit="10"/><path stroke-linecap="round" transform="matrix(0.326728, 0, 0, 0.324868, -13.26202, -7.947062)" fill="none" stroke-linejoin="round" d="M 163.100333 191.465206 C 160.86462 189.974217 158.246326 189.000265 155.544342 188.615493 C 157.110536 188.904072 158.748464 188.807879 160.266836 188.375011 C 160.733108 188.230722 161.247202 188.002264 161.330892 187.545348 C 161.402626 187.184625 161.139601 186.835926 160.86462 186.559372 C 159.394071 185.03231 157.242049 184.106454 155.042203 184.058358 C 156.835555 184.250743 158.664775 184.082406 160.374437 183.577394 C 161.247202 183.324887 162.215612 182.795827 162.215612 181.942115 C 162.191701 181.148524 161.330892 180.655536 160.553772 180.330885 C 159.154958 179.765752 157.70832 179.332885 156.225816 179.032282 C 158.174592 179.549318 160.493994 179.99421 162.036277 178.7918 C 162.932953 178.094402 162.299302 176.795798 161.713473 176.0984 C 160.924398 175.172544 159.585362 174.679556 158.365883 174.475146 " stroke="#365fa0" stroke-width="0.835" stroke-opacity="1" stroke-miterlimit="10"/><g clip-path="url(#222c80d4eb)"><path fill="#ef7e6b" d="M 75.230469 39.71875 C 75.03125 40.050781 75.070312 41.617188 75.308594 42.816406 C 75.878906 45.6875 76.277344 49.269531 76.792969 52.164062 C 78.730469 63.027344 80.101562 72.246094 82.351562 83.0625 C 82.4375 83.46875 82.546875 83.910156 82.886719 84.148438 C 83.1875 84.359375 83.585938 84.347656 83.957031 84.335938 C 86.839844 84.242188 92.753906 83.296875 93.195312 82.128906 C 93.84375 81.328125 89.425781 62.339844 89.03125 60.390625 C 88.238281 56.453125 87.691406 53.105469 86.957031 49.160156 C 86.507812 46.742188 85.785156 43.078125 85.195312 40.660156 C 84.398438 37.382812 83.328125 37.328125 76.871094 38.921875 C 76.007812 39.136719 75.378906 39.464844 75.230469 39.71875 Z M 75.230469 39.71875 " fill-opacity="1" fill-rule="nonzero"/></g><path stroke-linecap="round" transform="matrix(0.326728, 0, 0, 0.324868, -13.26202, -7.947062)" fill="none" stroke-linejoin="round" d="M 273.929502 167.441045 C 282.800618 164.182513 292.054315 161.921981 301.42757 160.71957 " stroke="#365fa0" stroke-width="0.624" stroke-opacity="1" stroke-miterlimit="10"/><path stroke-linecap="round" transform="matrix(0.326728, 0, 0, 0.324868, -13.26202, -7.947062)" fill="none" stroke-linejoin="round" d="M 277.504251 187.809878 C 287.128574 185.633516 296.752898 183.445128 306.377222 181.256741 " stroke="#365fa0" stroke-width="0.624" stroke-opacity="1" stroke-miterlimit="10"/><path fill="#fdd28a" d="M 79.558594 56.183594 C 80.125 59.4375 80.917969 63.667969 81.554688 66.789062 C 81.570312 66.875 81.601562 66.972656 81.675781 67.023438 C 81.753906 67.078125 81.863281 67.070312 81.957031 67.058594 C 84.03125 66.800781 86.023438 66.214844 88.097656 65.957031 C 87.136719 62.085938 86.941406 58.957031 85.980469 55.082031 C 82.460938 55.683594 79.558594 56.183594 79.558594 56.183594 Z M 79.558594 56.183594 " fill-opacity="1" fill-rule="nonzero"/><path stroke-linecap="round" transform="matrix(0.326728, 0, 0, 0.324868, -13.26202, -7.947062)" fill="none" stroke-linejoin="round" d="M 289.842514 262.010629 C 299.68204 260.146893 309.521566 258.295181 319.361092 256.443469 " stroke="#365fa0" stroke-width="0.624" stroke-opacity="1" stroke-miterlimit="10"/><path stroke-linecap="round" transform="matrix(0.326728, 0, 0, 0.324868, -13.26202, -7.947062)" fill="none" stroke-linejoin="round" d="M 290.73919 239.044589 C 291.564132 238.214926 292.090182 237.120732 292.209739 235.966418 C 292.257562 236.519527 292.305385 237.08466 292.604277 237.5536 C 292.915124 238.010516 293.548775 238.299095 294.027003 238.034564 C 294.301983 237.890275 294.469363 237.601696 294.624787 237.325142 C 295.007369 236.591672 295.342128 235.834153 295.605153 235.040562 C 295.796444 235.713912 296.035557 236.447382 296.621386 236.832154 C 297.30286 237.277046 298.259314 237.08466 298.869054 236.555599 C 299.478794 236.014515 299.801597 235.2089 299.968977 234.415309 C 299.76573 235.305092 300.554805 236.230949 301.463437 236.363214 C 302.372069 236.495479 303.268745 236.002491 303.878484 235.305092 C 304.476269 234.619718 304.834939 233.753983 305.181654 232.900271 C 305.086008 233.621718 305.313166 234.403285 305.827261 234.896273 C 306.365266 235.401285 307.202164 235.593671 307.847771 235.256996 C 308.26622 235.052586 308.565112 234.655791 308.864004 234.295068 C 309.557433 233.381236 310.274774 232.431331 310.466065 231.301066 " stroke="#365fa0" stroke-width="0.624" stroke-opacity="1" stroke-miterlimit="10"/><g fill="#ef7e6b" fill-opacity="1"><g transform="translate(11.730975, 44.559124)"><g><path d="M 0.515625 -0.46875 C 0.390625 -0.363281 0.242188 -0.363281 0.078125 -0.46875 C -0.0859375 -0.582031 -0.148438 -0.722656 -0.109375 -0.890625 C -0.078125 -0.984375 -0.0234375 -1.109375 0.046875 -1.265625 C 0.179688 -1.578125 0.144531 -1.859375 -0.0625 -2.109375 L -5.890625 -9.359375 C -6.078125 -9.597656 -6.34375 -9.691406 -6.6875 -9.640625 C -6.851562 -9.609375 -6.984375 -9.585938 -7.078125 -9.578125 C -7.253906 -9.566406 -7.378906 -9.648438 -7.453125 -9.828125 C -7.523438 -10.015625 -7.5 -10.160156 -7.375 -10.265625 L -3.5 -13.390625 C -2.394531 -14.304688 -1.367188 -15.007812 -0.421875 -15.5 C 0.523438 -16 1.359375 -16.257812 2.078125 -16.28125 C 2.804688 -16.300781 3.390625 -16.035156 3.828125 -15.484375 C 4.265625 -14.941406 4.394531 -14.328125 4.21875 -13.640625 C 4.039062 -12.953125 3.625 -12.191406 2.96875 -11.359375 C 4.15625 -12.054688 5.195312 -12.429688 6.09375 -12.484375 C 7 -12.546875 7.753906 -12.203125 8.359375 -11.453125 C 8.878906 -10.804688 9.066406 -10.078125 8.921875 -9.265625 C 8.785156 -8.460938 8.351562 -7.597656 7.625 -6.671875 C 6.90625 -5.753906 5.941406 -4.804688 4.734375 -3.828125 Z M 3.25 -4.59375 C 3.34375 -4.476562 3.453125 -4.410156 3.578125 -4.390625 C 3.710938 -4.378906 3.835938 -4.421875 3.953125 -4.515625 C 4.941406 -5.304688 5.523438 -6.054688 5.703125 -6.765625 C 5.878906 -7.472656 5.679688 -8.179688 5.109375 -8.890625 C 4.535156 -9.609375 3.878906 -9.953125 3.140625 -9.921875 C 2.398438 -9.890625 1.546875 -9.484375 0.578125 -8.703125 C 0.460938 -8.609375 0.398438 -8.492188 0.390625 -8.359375 C 0.378906 -8.222656 0.425781 -8.097656 0.53125 -7.984375 Z M -2.546875 -11.796875 L -0.75 -9.578125 C -0.664062 -9.460938 -0.554688 -9.394531 -0.421875 -9.375 C -0.285156 -9.351562 -0.160156 -9.390625 -0.046875 -9.484375 C 0.648438 -10.054688 1.054688 -10.609375 1.171875 -11.140625 C 1.296875 -11.679688 1.140625 -12.226562 0.703125 -12.78125 C 0.253906 -13.332031 -0.238281 -13.609375 -0.78125 -13.609375 C -1.320312 -13.617188 -1.953125 -13.335938 -2.671875 -12.765625 C -2.929688 -12.554688 -2.953125 -12.3125 -2.734375 -12.03125 Z M -2.546875 -11.796875 "/></g></g></g><g fill="#ef7e6b" fill-opacity="1"><g transform="translate(23.962194, 35.189107)"><g><path d="M -1.5625 -3.625 C -2.175781 -4.84375 -2.257812 -5.957031 -1.8125 -6.96875 C -1.375 -7.976562 -0.535156 -8.796875 0.703125 -9.421875 C 1.953125 -10.046875 3.109375 -10.242188 4.171875 -10.015625 C 5.242188 -9.785156 6.097656 -9.035156 6.734375 -7.765625 C 7.367188 -6.484375 7.457031 -5.347656 7 -4.359375 C 6.539062 -3.378906 5.6875 -2.578125 4.4375 -1.953125 C 3.195312 -1.328125 2.035156 -1.144531 0.953125 -1.40625 C -0.117188 -1.664062 -0.957031 -2.40625 -1.5625 -3.625 Z M 0.65625 -8.3125 C 0.457031 -8.164062 0.363281 -7.972656 0.375 -7.734375 C 0.382812 -7.503906 0.507812 -7.179688 0.75 -6.765625 C 1 -6.359375 1.363281 -5.828125 1.84375 -5.171875 C 2.332031 -4.492188 2.734375 -3.972656 3.046875 -3.609375 C 3.367188 -3.242188 3.632812 -3.019531 3.84375 -2.9375 C 4.0625 -2.863281 4.273438 -2.894531 4.484375 -3.03125 C 4.691406 -3.195312 4.789062 -3.394531 4.78125 -3.625 C 4.769531 -3.863281 4.640625 -4.1875 4.390625 -4.59375 C 4.140625 -5 3.78125 -5.546875 3.3125 -6.234375 C 2.820312 -6.898438 2.414062 -7.410156 2.09375 -7.765625 C 1.78125 -8.117188 1.519531 -8.335938 1.3125 -8.421875 C 1.101562 -8.503906 0.882812 -8.46875 0.65625 -8.3125 Z M 0.65625 -8.3125 "/></g></g></g><g fill="#ef7e6b" fill-opacity="1"><g transform="translate(34.337724, 30.178285)"><g><path d="M -0.875 -3.84375 C -1.25 -5.15625 -1.125 -6.269531 -0.5 -7.1875 C 0.113281 -8.101562 1.085938 -8.75 2.421875 -9.125 C 3.773438 -9.507812 4.953125 -9.488281 5.953125 -9.0625 C 6.960938 -8.644531 7.660156 -7.75 8.046875 -6.375 C 8.441406 -5.007812 8.320312 -3.882812 7.6875 -3 C 7.050781 -2.113281 6.054688 -1.476562 4.703125 -1.09375 C 3.367188 -0.71875 2.195312 -0.753906 1.1875 -1.203125 C 0.1875 -1.660156 -0.5 -2.539062 -0.875 -3.84375 Z M 2.1875 -8.046875 C 1.945312 -7.941406 1.8125 -7.769531 1.78125 -7.53125 C 1.75 -7.300781 1.816406 -6.960938 1.984375 -6.515625 C 2.148438 -6.078125 2.410156 -5.484375 2.765625 -4.734375 C 3.117188 -3.984375 3.414062 -3.398438 3.65625 -2.984375 C 3.90625 -2.566406 4.128906 -2.296875 4.328125 -2.171875 C 4.535156 -2.046875 4.75 -2.039062 4.96875 -2.15625 C 5.207031 -2.28125 5.335938 -2.457031 5.359375 -2.6875 C 5.390625 -2.914062 5.320312 -3.253906 5.15625 -3.703125 C 5 -4.148438 4.742188 -4.75 4.390625 -5.5 C 4.046875 -6.257812 3.75 -6.84375 3.5 -7.25 C 3.25 -7.65625 3.023438 -7.914062 2.828125 -8.03125 C 2.640625 -8.144531 2.425781 -8.148438 2.1875 -8.046875 Z M 2.1875 -8.046875 "/></g></g></g><g fill="#ef7e6b" fill-opacity="1"><g transform="translate(45.358581, 27.071165)"><g><path d="M -0.390625 -11.078125 C -0.515625 -11.078125 -0.609375 -11.125 -0.671875 -11.21875 C -0.742188 -11.320312 -0.769531 -11.4375 -0.75 -11.5625 C -0.726562 -11.695312 -0.671875 -11.796875 -0.578125 -11.859375 C -0.210938 -12.097656 0.25 -12.300781 0.8125 -12.46875 C 1.382812 -12.632812 1.9375 -12.738281 2.46875 -12.78125 C 2.914062 -12.8125 3.28125 -12.800781 3.5625 -12.75 C 3.84375 -12.695312 4.050781 -12.554688 4.1875 -12.328125 C 4.320312 -12.097656 4.410156 -11.726562 4.453125 -11.21875 L 4.859375 -5.65625 C 5.273438 -5.851562 5.617188 -6.082031 5.890625 -6.34375 C 6.171875 -6.613281 6.414062 -6.890625 6.625 -7.171875 C 6.832031 -7.460938 7.046875 -7.738281 7.265625 -8 C 7.484375 -8.257812 7.75 -8.476562 8.0625 -8.65625 C 8.382812 -8.84375 8.789062 -8.960938 9.28125 -9.015625 C 9.65625 -9.066406 10.015625 -9.035156 10.359375 -8.921875 C 10.710938 -8.816406 11.003906 -8.632812 11.234375 -8.375 C 11.472656 -8.125 11.597656 -7.800781 11.609375 -7.40625 C 11.628906 -7.03125 11.523438 -6.710938 11.296875 -6.453125 C 11.066406 -6.191406 10.78125 -6.070312 10.4375 -6.09375 C 10.125 -6.101562 9.875 -6.15625 9.6875 -6.25 C 9.5 -6.351562 9.34375 -6.472656 9.21875 -6.609375 C 9.101562 -6.742188 8.988281 -6.859375 8.875 -6.953125 C 8.757812 -7.054688 8.601562 -7.101562 8.40625 -7.09375 C 8.1875 -7.070312 7.984375 -6.976562 7.796875 -6.8125 C 7.609375 -6.644531 7.414062 -6.441406 7.21875 -6.203125 C 7.019531 -5.972656 6.78125 -5.738281 6.5 -5.5 C 6.800781 -5.5625 7.078125 -5.597656 7.328125 -5.609375 C 8.078125 -5.671875 8.695312 -5.535156 9.1875 -5.203125 C 9.6875 -4.878906 10.101562 -4.3125 10.4375 -3.5 L 11 -2.203125 C 11.070312 -2.054688 11.171875 -1.929688 11.296875 -1.828125 C 11.421875 -1.734375 11.550781 -1.6875 11.6875 -1.6875 C 11.757812 -1.6875 11.828125 -1.679688 11.890625 -1.671875 C 11.960938 -1.671875 12.023438 -1.648438 12.078125 -1.609375 C 12.222656 -1.523438 12.273438 -1.382812 12.234375 -1.1875 C 12.203125 -0.988281 12.09375 -0.882812 11.90625 -0.875 L 8.609375 -0.640625 C 8.367188 -0.617188 8.140625 -0.671875 7.921875 -0.796875 C 7.710938 -0.929688 7.554688 -1.117188 7.453125 -1.359375 C 7.367188 -1.566406 7.265625 -1.804688 7.140625 -2.078125 C 7.023438 -2.359375 6.878906 -2.695312 6.703125 -3.09375 C 6.429688 -3.726562 6.15625 -4.113281 5.875 -4.25 C 5.601562 -4.382812 5.296875 -4.421875 4.953125 -4.359375 L 5.125 -2.046875 C 5.132812 -1.898438 5.1875 -1.765625 5.28125 -1.640625 C 5.382812 -1.515625 5.5 -1.410156 5.625 -1.328125 C 5.6875 -1.304688 5.738281 -1.28125 5.78125 -1.25 C 5.820312 -1.226562 5.875 -1.195312 5.9375 -1.15625 C 6.09375 -1.070312 6.144531 -0.929688 6.09375 -0.734375 C 6.050781 -0.535156 5.941406 -0.429688 5.765625 -0.421875 L 0.953125 -0.0625 C 0.785156 -0.0507812 0.660156 -0.140625 0.578125 -0.328125 C 0.503906 -0.515625 0.539062 -0.660156 0.6875 -0.765625 C 0.738281 -0.816406 0.789062 -0.859375 0.84375 -0.890625 C 0.90625 -0.929688 0.960938 -0.96875 1.015625 -1 C 1.304688 -1.164062 1.4375 -1.421875 1.40625 -1.765625 L 0.734375 -10.859375 C 0.722656 -11.035156 0.65625 -11.132812 0.53125 -11.15625 C 0.40625 -11.1875 0.257812 -11.179688 0.09375 -11.140625 C -0.0703125 -11.097656 -0.234375 -11.078125 -0.390625 -11.078125 Z M -0.390625 -11.078125 "/></g></g></g><g fill="#ef7e6b" fill-opacity="1"><g transform="translate(59.050843, 26.12006)"><g><path d="M 0.671875 0.109375 C 0.515625 0.078125 0.421875 -0.0351562 0.390625 -0.234375 C 0.367188 -0.429688 0.4375 -0.5625 0.59375 -0.625 C 0.6875 -0.675781 0.804688 -0.726562 0.953125 -0.78125 C 1.285156 -0.882812 1.476562 -1.101562 1.53125 -1.4375 L 2.9375 -10.21875 C 2.988281 -10.550781 2.878906 -10.816406 2.609375 -11.015625 C 2.484375 -11.117188 2.382812 -11.203125 2.3125 -11.265625 C 2.1875 -11.378906 2.160156 -11.519531 2.234375 -11.6875 C 2.304688 -11.851562 2.414062 -11.941406 2.5625 -11.953125 L 6.9375 -11.265625 C 7.269531 -11.203125 7.507812 -11.023438 7.65625 -10.734375 L 12.015625 -1.765625 L 13.109375 -8.578125 C 13.160156 -8.910156 13.046875 -9.175781 12.765625 -9.375 C 12.628906 -9.476562 12.53125 -9.566406 12.46875 -9.640625 C 12.332031 -9.765625 12.304688 -9.914062 12.390625 -10.09375 C 12.484375 -10.269531 12.613281 -10.347656 12.78125 -10.328125 L 15.015625 -9.96875 C 15.203125 -9.9375 15.304688 -9.820312 15.328125 -9.625 C 15.347656 -9.425781 15.28125 -9.285156 15.125 -9.203125 C 15.070312 -9.179688 15.019531 -9.15625 14.96875 -9.125 C 14.914062 -9.09375 14.863281 -9.070312 14.8125 -9.0625 C 14.5 -8.9375 14.316406 -8.71875 14.265625 -8.40625 L 14.234375 -8.25 L 12.859375 0.375 C 12.804688 0.695312 12.90625 0.972656 13.15625 1.203125 C 13.207031 1.234375 13.253906 1.265625 13.296875 1.296875 C 13.335938 1.335938 13.375 1.382812 13.40625 1.4375 C 13.539062 1.539062 13.582031 1.6875 13.53125 1.875 C 13.488281 2.0625 13.335938 2.132812 13.078125 2.09375 L 9.5 1.53125 C 9.164062 1.46875 8.925781 1.285156 8.78125 0.984375 L 3.9375 -9.0625 L 2.6875 -1.25 C 2.632812 -0.925781 2.738281 -0.65625 3 -0.4375 C 3.050781 -0.40625 3.09375 -0.367188 3.125 -0.328125 C 3.164062 -0.285156 3.207031 -0.242188 3.25 -0.203125 C 3.382812 -0.0859375 3.40625 0.0546875 3.3125 0.234375 C 3.226562 0.421875 3.101562 0.5 2.9375 0.46875 Z M 0.671875 0.109375 "/></g></g></g><g fill="#ef7e6b" fill-opacity="1"><g transform="translate(74.158644, 28.919441)"><g><path d="M 1.625 -3.59375 C 1.9375 -4.457031 2.40625 -5.097656 3.03125 -5.515625 C 3.65625 -5.929688 4.367188 -6.148438 5.171875 -6.171875 C 5.972656 -6.203125 6.804688 -6.050781 7.671875 -5.71875 C 8.410156 -5.425781 9.007812 -5.066406 9.46875 -4.640625 C 9.925781 -4.222656 10.25 -3.773438 10.4375 -3.296875 C 10.625 -2.816406 10.671875 -2.351562 10.578125 -1.90625 C 10.472656 -1.425781 10.238281 -1.070312 9.875 -0.84375 C 9.507812 -0.625 9.070312 -0.492188 8.5625 -0.453125 C 8.0625 -0.410156 7.539062 -0.429688 7 -0.515625 C 6.46875 -0.609375 5.984375 -0.738281 5.546875 -0.90625 C 5.273438 -1.019531 5.039062 -1.132812 4.84375 -1.25 C 4.84375 -0.582031 4.96875 -0.0625 5.21875 0.3125 C 5.476562 0.6875 5.828125 0.96875 6.265625 1.15625 C 6.765625 1.351562 7.238281 1.390625 7.6875 1.265625 C 8.144531 1.148438 8.523438 0.863281 8.828125 0.40625 C 9.046875 0.09375 9.296875 0.015625 9.578125 0.171875 C 9.847656 0.316406 9.878906 0.566406 9.671875 0.921875 C 9.097656 1.804688 8.359375 2.3125 7.453125 2.4375 C 6.554688 2.570312 5.546875 2.421875 4.421875 1.984375 C 3.128906 1.472656 2.222656 0.734375 1.703125 -0.234375 C 1.179688 -1.203125 1.15625 -2.320312 1.625 -3.59375 Z M 6.875 -4.984375 C 6.632812 -5.023438 6.378906 -4.925781 6.109375 -4.6875 C 5.847656 -4.457031 5.613281 -4.117188 5.40625 -3.671875 C 5.195312 -3.234375 5.039062 -2.710938 4.9375 -2.109375 C 5.164062 -2.003906 5.429688 -1.910156 5.734375 -1.828125 C 6.035156 -1.742188 6.328125 -1.722656 6.609375 -1.765625 C 6.890625 -1.804688 7.125 -1.941406 7.3125 -2.171875 C 7.582031 -2.523438 7.734375 -2.90625 7.765625 -3.3125 C 7.804688 -3.71875 7.753906 -4.082031 7.609375 -4.40625 C 7.460938 -4.726562 7.21875 -4.921875 6.875 -4.984375 Z M 6.875 -4.984375 "/></g></g></g><g fill="#ef7e6b" fill-opacity="1"><g transform="translate(84.679884, 33.190462)"><g><path d="M 1.0625 -1.109375 C 1.113281 -1.410156 1.226562 -1.648438 1.40625 -1.828125 C 1.582031 -2.015625 1.796875 -2.113281 2.046875 -2.125 C 2.304688 -2.132812 2.566406 -2.039062 2.828125 -1.84375 C 3.046875 -1.644531 3.1875 -1.4375 3.25 -1.21875 C 3.3125 -1.007812 3.335938 -0.78125 3.328125 -0.53125 C 3.328125 -0.289062 3.332031 -0.0390625 3.34375 0.21875 C 3.351562 0.488281 3.414062 0.765625 3.53125 1.046875 C 3.65625 1.335938 3.890625 1.625 4.234375 1.90625 C 4.566406 2.195312 4.851562 2.335938 5.09375 2.328125 C 5.332031 2.328125 5.519531 2.21875 5.65625 2 C 5.757812 1.820312 5.75 1.582031 5.625 1.28125 C 5.5 0.988281 5.300781 0.660156 5.03125 0.296875 C 4.769531 -0.0546875 4.492188 -0.441406 4.203125 -0.859375 C 3.910156 -1.273438 3.65625 -1.703125 3.4375 -2.140625 C 3.226562 -2.585938 3.09375 -3.019531 3.03125 -3.4375 C 2.976562 -3.863281 3.070312 -4.265625 3.3125 -4.640625 C 3.582031 -5.078125 3.960938 -5.363281 4.453125 -5.5 C 4.953125 -5.644531 5.53125 -5.632812 6.1875 -5.46875 C 6.851562 -5.300781 7.546875 -4.972656 8.265625 -4.484375 C 9.242188 -3.816406 9.9375 -3.171875 10.34375 -2.546875 C 10.75 -1.929688 10.863281 -1.398438 10.6875 -0.953125 C 10.5625 -0.648438 10.351562 -0.472656 10.0625 -0.421875 C 9.78125 -0.378906 9.515625 -0.457031 9.265625 -0.65625 C 9.015625 -0.875 8.851562 -1.109375 8.78125 -1.359375 C 8.707031 -1.617188 8.660156 -1.882812 8.640625 -2.15625 C 8.628906 -2.425781 8.570312 -2.695312 8.46875 -2.96875 C 8.375 -3.238281 8.164062 -3.492188 7.84375 -3.734375 C 7.582031 -3.910156 7.332031 -4.007812 7.09375 -4.03125 C 6.851562 -4.0625 6.664062 -3.988281 6.53125 -3.8125 C 6.382812 -3.59375 6.375 -3.34375 6.5 -3.0625 C 6.632812 -2.789062 6.84375 -2.488281 7.125 -2.15625 C 7.414062 -1.820312 7.71875 -1.46875 8.03125 -1.09375 C 8.351562 -0.71875 8.640625 -0.332031 8.890625 0.0625 C 9.148438 0.46875 9.316406 0.875 9.390625 1.28125 C 9.472656 1.695312 9.394531 2.113281 9.15625 2.53125 C 8.726562 3.351562 8.054688 3.78125 7.140625 3.8125 C 6.222656 3.851562 5.125 3.476562 3.84375 2.6875 C 3.613281 2.539062 3.332031 2.335938 3 2.078125 C 2.664062 1.828125 2.335938 1.523438 2.015625 1.171875 C 1.703125 0.828125 1.453125 0.457031 1.265625 0.0625 C 1.078125 -0.320312 1.007812 -0.710938 1.0625 -1.109375 Z M 1.0625 -1.109375 "/></g></g></g><g fill="#ef7e6b" fill-opacity="1"><g transform="translate(94.136393, 39.276423)"><g><path d="M 5.3125 -4.609375 C 5.101562 -4.796875 5.09375 -5 5.28125 -5.21875 L 5.296875 -5.21875 C 5.460938 -5.414062 5.640625 -5.441406 5.828125 -5.296875 L 5.828125 -5.328125 C 6.140625 -5.054688 6.5 -4.9375 6.90625 -4.96875 C 7.3125 -5.007812 7.722656 -5.144531 8.140625 -5.375 C 8.554688 -5.613281 8.929688 -5.890625 9.265625 -6.203125 C 9.378906 -6.304688 9.507812 -6.367188 9.65625 -6.390625 C 9.800781 -6.421875 9.941406 -6.398438 10.078125 -6.328125 L 11.671875 -5.421875 C 11.804688 -5.335938 11.882812 -5.238281 11.90625 -5.125 C 11.925781 -5.007812 11.882812 -4.890625 11.78125 -4.765625 L 9.453125 -2.125 L 10.578125 -1.140625 C 10.785156 -0.953125 10.789062 -0.75 10.59375 -0.53125 C 10.40625 -0.3125 10.207031 -0.296875 10 -0.484375 L 8.875 -1.46875 L 5.40625 2.46875 C 5.207031 2.695312 5.113281 2.894531 5.125 3.0625 C 5.132812 3.226562 5.207031 3.367188 5.34375 3.484375 C 5.519531 3.640625 5.734375 3.757812 5.984375 3.84375 C 6.234375 3.9375 6.414062 4.035156 6.53125 4.140625 C 6.625 4.222656 6.664062 4.304688 6.65625 4.390625 C 6.625 4.523438 6.476562 4.625 6.21875 4.6875 C 5.957031 4.757812 5.59375 4.707031 5.125 4.53125 C 4.65625 4.363281 4.101562 3.988281 3.46875 3.40625 C 2.757812 2.75 2.359375 2.09375 2.265625 1.4375 C 2.171875 0.78125 2.40625 0.128906 2.96875 -0.515625 L 6.03125 -3.984375 Z M 5.3125 -4.609375 "/></g></g></g></svg>