<svg xmlns="http://www.w3.org/2000/svg" xmlns:xlink="http://www.w3.org/1999/xlink" width="300" zoomAndPan="magnify" viewBox="0 0 224.87999 225" height="300" preserveAspectRatio="xMidYMid meet" version="1.0"><defs><g/><clipPath id="24ef13a867"><path d="M 41 149 L 153 149 L 153 169.480469 L 41 169.480469 Z M 41 149 " clip-rule="nonzero"/></clipPath><clipPath id="0171731fcd"><path d="M 150 76 L 187 76 L 187 169.480469 L 150 169.480469 Z M 150 76 " clip-rule="nonzero"/></clipPath></defs><g clip-path="url(#24ef13a867)"><path fill="#fdd28a" d="M 44.617188 169.109375 C 40.25 162.535156 40.886719 153.890625 44.320312 149.167969 C 78.734375 149.371094 113.308594 148.964844 147.71875 149.167969 C 148.410156 149.175781 149.132812 149.1875 149.734375 149.527344 C 150.523438 149.976562 150.910156 150.890625 151.203125 151.75 C 152.195312 154.648438 153.042969 165.691406 149.742188 167.640625 C 149.1875 167.96875 148.507812 168.007812 147.855469 168.027344 C 119.421875 169.078125 90.964844 169.324219 62.519531 169.058594 Z M 44.617188 169.109375 " fill-opacity="1" fill-rule="nonzero"/></g><path stroke-linecap="round" transform="matrix(0.652711, 0, 0, 0.652276, -26.301452, -15.896237)" fill="none" stroke-linejoin="round" d="M 121.33995 281.648568 C 118.569054 272.012839 118.521177 261.598586 121.202303 251.932914 " stroke="#365fa0" stroke-width="0.835" stroke-opacity="1" stroke-miterlimit="10"/><path stroke-linecap="round" transform="matrix(0.652711, 0, 0, 0.652276, -26.301452, -15.896237)" fill="none" stroke-linejoin="round" d="M 238.621275 281.738398 C 240.739843 271.761316 240.829613 263.898226 238.938462 253.867246 " stroke="#365fa0" stroke-width="0.835" stroke-opacity="1" stroke-miterlimit="10"/><path stroke-linecap="round" transform="matrix(0.652711, 0, 0, 0.652276, -26.301452, -15.896237)" fill="none" stroke-linejoin="round" d="M 231.092576 281.097613 C 232.852065 273.360284 232.822142 263.688623 230.990837 255.957283 " stroke="#365fa0" stroke-width="0.835" stroke-opacity="1" stroke-miterlimit="10"/><path stroke-linecap="round" transform="matrix(0.652711, 0, 0, 0.652276, -26.301452, -15.896237)" fill="none" stroke-linejoin="round" d="M 131.771207 271.737361 C 134.368549 270.497712 136.481133 268.287902 137.612233 265.640921 C 136.43924 267.479435 137.229215 270.587541 139.401645 270.791155 C 140.867886 270.928894 142.118679 269.707211 142.818884 268.419652 C 143.519089 267.132094 143.908092 265.652898 144.847683 264.509067 C 144.327018 266.012217 144.279141 267.671072 144.698067 269.210153 C 144.799806 269.569472 144.937453 269.952745 145.248655 270.15037 C 145.637658 270.407882 146.152338 270.312064 146.589218 270.192291 C 149.922672 269.252074 152.831216 266.922491 154.482981 263.88026 C 154.082009 265.46725 154.087994 267.168025 154.512904 268.749028 C 154.638582 269.258062 154.877968 269.832972 155.392649 270.000654 C 155.811575 270.138393 156.260424 269.958734 156.649427 269.749131 C 158.881704 268.581346 160.707024 266.647013 161.760324 264.359351 C 161.568815 265.551091 161.389275 266.790741 161.74237 267.940561 C 162.08948 269.09038 163.160734 270.120427 164.357665 270.01862 C 164.962116 269.970711 165.500735 269.647324 166.009431 269.31196 C 167.930505 268.03039 169.618179 266.407468 170.982681 264.556976 C 171.192144 265.587023 170.797156 266.647013 170.73731 267.701015 C 170.677463 268.749028 171.198128 270.030598 172.251428 270.132404 C 172.861863 270.192291 173.430405 269.809018 173.909178 269.437722 C 175.578897 268.16214 177.099 266.688934 178.439563 265.072 C 178.14033 265.898433 177.847082 266.772775 177.978745 267.647117 C 178.110407 268.521459 178.822581 269.371847 179.702326 269.359869 C 180.312761 269.347892 180.839411 268.952642 181.312199 268.557391 C 182.557007 267.521355 183.741969 266.401479 184.837162 265.221716 C 183.771893 266.149956 184.017264 268.060333 185.148364 268.910721 C 186.291433 269.749131 187.967137 269.587438 189.110207 268.761005 C 190.259261 267.928583 190.917573 266.569161 191.198852 265.179795 " stroke="#365fa0" stroke-width="0.835" stroke-opacity="1" stroke-miterlimit="10"/><path fill="#d7c8b5" d="M 52.789062 149.082031 C 50.90625 146.382812 51.058594 140.597656 52.546875 137.902344 C 81.304688 138.019531 109.875 136.304688 138.632812 136.421875 C 139.214844 136.421875 139.820312 136.429688 140.324219 136.625 C 140.980469 136.878906 141.300781 137.386719 141.550781 137.871094 C 142.378906 139.496094 142.964844 147.910156 140.203125 149.003906 C 139.742188 149.1875 139.171875 149.207031 138.632812 149.222656 C 114.875 149.808594 91.53125 149.207031 67.761719 149.058594 Z M 52.789062 149.082031 " fill-opacity="1" fill-rule="nonzero"/><path stroke-linecap="round" transform="matrix(0.652711, 0, 0, 0.652276, -26.301452, -15.896237)" fill="none" stroke-linejoin="round" d="M 142.070802 248.878705 C 145.799244 249.20808 150.389476 249.501524 153.537405 247.477362 C 155.332802 246.327542 156.900782 244.357278 155.54825 242.357071 C 153.872546 239.859806 150.197967 239.871784 147.528809 239.722068 C 142.471774 239.440601 136.277654 239.380715 131.962716 242.422946 C 126.367062 246.327542 139.58717 248.657125 142.070802 248.878705 Z M 142.070802 248.878705 " stroke="#365fa0" stroke-width="0.835" stroke-opacity="1" stroke-miterlimit="10"/><path stroke-linecap="round" transform="matrix(0.652711, 0, 0, 0.652276, -26.301452, -15.896237)" fill="none" stroke-linejoin="round" d="M 161.090042 249.172149 C 160.760886 246.087997 160.419761 242.997856 160.090605 239.919693 " stroke="#365fa0" stroke-width="0.835" stroke-opacity="1" stroke-miterlimit="10"/><path stroke-linecap="round" transform="matrix(0.652711, 0, 0, 0.652276, -26.301452, -15.896237)" fill="none" stroke-linejoin="round" d="M 164.489328 249.759036 C 164.028509 246.111951 163.777153 242.440912 163.759199 238.757896 " stroke="#365fa0" stroke-width="0.835" stroke-opacity="1" stroke-miterlimit="10"/><path stroke-linecap="round" transform="matrix(0.652711, 0, 0, 0.652276, -26.301452, -15.896237)" fill="none" stroke-linejoin="round" d="M 240.057592 248.980512 C 240.117439 245.962235 240.009715 242.931981 239.710482 239.919693 " stroke="#365fa0" stroke-width="0.835" stroke-opacity="1" stroke-miterlimit="10"/><path stroke-linecap="round" transform="matrix(0.652711, 0, 0, 0.652276, -26.301452, -15.896237)" fill="none" stroke-linejoin="round" d="M 243.941635 248.788875 C 243.738156 245.051961 243.438924 241.309058 243.019998 237.578133 " stroke="#365fa0" stroke-width="0.835" stroke-opacity="1" stroke-miterlimit="10"/><path fill="#ef7e6b" d="M 41.324219 137.820312 C 37.207031 129.671875 37.808594 118.980469 41.050781 113.128906 C 73.476562 113.386719 106.054688 112.875 138.480469 113.128906 C 139.132812 113.136719 139.820312 113.148438 140.386719 113.582031 C 141.132812 114.140625 141.496094 115.261719 141.773438 116.332031 C 142.703125 119.921875 143.507812 133.59375 140.394531 136.003906 C 139.867188 136.417969 139.234375 136.457031 138.617188 136.480469 C 111.832031 137.785156 85.011719 138.085938 58.210938 137.753906 Z M 41.324219 137.820312 " fill-opacity="1" fill-rule="nonzero"/><path stroke-linecap="round" transform="matrix(0.652711, 0, 0, 0.652276, -26.301452, -15.896237)" fill="none" stroke-linejoin="round" d="M 115.618618 226.409311 C 121.890539 226.361402 128.15049 226.331458 134.422411 226.331458 C 133.967577 219.82779 133.518727 213.330111 133.069878 206.820454 C 133.051924 206.568931 133.027985 206.299442 132.872384 206.101817 C 132.662921 205.832328 132.279903 205.77843 131.938778 205.742498 C 126.031921 205.191543 120.089157 205.059793 114.170331 205.371202 C 114.732889 210.299857 115.642557 215.210545 115.642557 220.169143 Z M 115.618618 226.409311 " stroke="#365fa0" stroke-width="0.835" stroke-opacity="1" stroke-miterlimit="10"/><path stroke-linecap="round" transform="matrix(0.652711, 0, 0, 0.652276, -26.301452, -15.896237)" fill="none" stroke-linejoin="round" d="M 142.142618 216.042967 C 142.340112 217.629958 143.991877 218.881585 145.571827 218.648027 C 147.151776 218.420459 148.378631 216.749627 148.121291 215.168625 C 148.959143 216.64782 150.191982 218.067129 151.861701 218.37255 C 153.531421 218.671982 155.500373 217.252673 155.171217 215.58783 C 156.212547 216.8694 157.73265 217.977299 159.372446 217.79764 C 161.012242 217.617981 162.370759 215.581841 161.401245 214.240385 C 162.412652 215.71958 163.549736 217.31256 165.267333 217.791651 C 166.990914 218.28272 169.24713 216.851434 168.81025 215.120716 C 169.797718 216.731661 171.34176 218.001254 173.119203 218.642039 C 173.747592 217.252673 174.118641 215.737546 174.208411 214.210442 C 175.961915 215.629751 177.051123 218.612096 179.271431 218.222834 C 180.390561 218.01922 181.168567 216.881377 181.270306 215.737546 C 181.372045 214.599704 180.929181 213.491804 180.390561 212.479724 " stroke="#365fa0" stroke-width="0.835" stroke-opacity="1" stroke-miterlimit="10"/><path stroke-linecap="round" transform="matrix(0.652711, 0, 0, 0.652276, -26.301452, -15.896237)" fill="none" stroke-linejoin="round" d="M 214.072211 225.858355 C 214.497122 219.869711 214.592877 213.851123 214.329552 207.850501 " stroke="#365fa0" stroke-width="0.835" stroke-opacity="1" stroke-miterlimit="10"/><path stroke-linecap="round" transform="matrix(0.652711, 0, 0, 0.652276, -26.301452, -15.896237)" fill="none" stroke-linejoin="round" d="M 220.990475 225.211582 C 220.631396 219.21096 220.260347 213.210338 219.901267 207.221694 " stroke="#365fa0" stroke-width="0.835" stroke-opacity="1" stroke-miterlimit="10"/><path stroke-linecap="round" transform="matrix(0.652711, 0, 0, 0.652276, -26.301452, -15.896237)" fill="none" stroke-linejoin="round" d="M 226.071449 225.331355 C 226.161219 219.330733 226.250989 212.797122 226.352728 206.802489 C 233.300915 206.802489 240.961276 208.137956 248.292481 207.838524 C 249.399642 210.3298 249.902353 213.491804 249.878415 216.07291 C 249.860461 219.139096 249.399642 221.702236 248.148849 224.792377 C 242.541225 224.702547 236.909663 224.792377 231.319993 225.337343 L 226.071449 225.337343 Z M 226.071449 225.331355 " stroke="#365fa0" stroke-width="0.835" stroke-opacity="1" stroke-miterlimit="10"/><path fill="#98d4e1" d="M 57.65625 113.105469 C 53.859375 106.992188 54.40625 98.0625 57.585938 93.789062 C 88.492188 94.613281 119.546875 94.867188 150.453125 95.6875 C 151.074219 95.707031 151.726562 95.726562 152.261719 96.054688 C 152.960938 96.484375 153.292969 97.324219 153.539062 98.121094 C 154.375 100.796875 154.929688 110.945312 151.925781 112.675781 C 151.417969 112.96875 150.8125 112.980469 150.230469 112.992188 C 124.675781 113.4375 100.460938 113.855469 74.921875 113.089844 Z M 57.65625 113.105469 " fill-opacity="1" fill-rule="nonzero"/><path stroke-linecap="round" transform="matrix(0.652711, 0, 0, 0.652276, -26.301452, -15.896237)" fill-opacity="1" fill="#98d4e1" fill-rule="nonzero" stroke-linejoin="round" d="M 270.447681 197.597942 C 246.191866 198.017147 222.720041 198.430363 199.062691 198.40042 C 184.537929 198.382454 169.947335 198.202795 155.069477 197.747658 " stroke="#365fa0" stroke-width="0.835" stroke-opacity="1" stroke-miterlimit="10"/><path stroke-linecap="round" transform="matrix(0.652711, 0, 0, 0.652276, -26.301452, -15.896237)" fill="none" stroke-linejoin="round" d="M 128.521539 168.157765 C 156.068915 168.88838 183.688107 169.33154 211.3073 169.822608 C 220.098761 169.972325 228.878253 170.128029 237.657745 170.307689 C 248.711407 170.529269 259.759083 170.780792 270.800776 171.068247 C 271.752336 171.09819 272.751774 171.128133 273.571672 171.631179 C 274.642926 172.28993 275.151621 173.577489 275.528655 174.799172 " stroke="#365fa0" stroke-width="0.835" stroke-opacity="1" stroke-miterlimit="10"/><path stroke-linecap="round" transform="matrix(0.652711, 0, 0, 0.652276, -26.301452, -15.896237)" fill="none" stroke-linejoin="round" d="M 171.377668 190.938569 C 171.120328 185.890142 170.868972 180.829737 170.611632 175.78131 " stroke="#365fa0" stroke-width="0.835" stroke-opacity="1" stroke-miterlimit="10"/><path stroke-linecap="round" transform="matrix(0.652711, 0, 0, 0.652276, -26.301452, -15.896237)" fill="none" stroke-linejoin="round" d="M 175.022324 191.980593 C 174.651275 185.997937 174.507644 179.97935 174.597413 173.972739 " stroke="#365fa0" stroke-width="0.835" stroke-opacity="1" stroke-miterlimit="10"/><path stroke-linecap="round" transform="matrix(0.652711, 0, 0, 0.652276, -26.301452, -15.896237)" fill="none" stroke-linejoin="round" d="M 256.258059 192.369855 C 256.431614 187.417246 256.401691 182.470626 256.192228 177.529994 " stroke="#365fa0" stroke-width="0.835" stroke-opacity="1" stroke-miterlimit="10"/><path stroke-linecap="round" transform="matrix(0.652711, 0, 0, 0.652276, -26.301452, -15.896237)" fill="none" stroke-linejoin="round" d="M 260.429365 192.142287 C 260.339595 186.009915 260.142102 179.88952 259.81893 173.781103 " stroke="#365fa0" stroke-width="0.835" stroke-opacity="1" stroke-miterlimit="10"/><path stroke-linecap="round" transform="matrix(0.652711, 0, 0, 0.652276, -26.301452, -15.896237)" fill-opacity="1" fill="#d7c8b5" fill-rule="nonzero" stroke-linejoin="round" d="M 181.03092 192.96872 C 180.977058 187.039962 181.461815 180.440475 181.407953 174.511717 C 190.941512 174.817138 208.099524 175.110582 218.069962 175.320184 C 218.662443 181.368715 218.040039 186.878268 217.692929 193.729277 C 208.829652 193.549618 198.901106 193.351993 186.578697 193.088493 Z M 181.03092 192.96872 " stroke="#365fa0" stroke-width="0.835" stroke-opacity="1" stroke-miterlimit="10"/><path stroke-linecap="round" transform="matrix(0.652711, 0, 0, 0.652276, -26.301452, -15.896237)" fill="none" stroke-linejoin="round" d="M 163.100887 191.459581 C 160.862625 189.980386 158.24733 188.998248 155.542265 188.620964 C 157.110245 188.90243 158.750041 188.8126 160.270144 188.369441 C 160.730963 188.231702 161.251628 187.998145 161.329429 187.548996 C 161.401245 187.1777 161.13792 186.830359 160.86861 186.56087 C 159.402369 185.027777 157.241908 184.111514 155.039554 184.057617 C 156.828967 184.249253 158.660272 184.081571 160.377868 183.578525 C 161.251628 183.321013 162.221143 182.788024 162.209173 181.937636 C 162.191219 181.147135 161.329429 180.650078 160.551423 180.33268 C 159.156998 179.75777 157.708711 179.332576 156.230501 179.027155 C 158.181499 179.548167 160.491577 179.997316 162.041603 178.787609 C 162.927332 178.092927 162.298943 176.787402 161.712447 176.098708 C 160.922472 175.170468 159.587893 174.679399 158.367023 174.481774 " stroke="#365fa0" stroke-width="0.835" stroke-opacity="1" stroke-miterlimit="10"/><g clip-path="url(#0171731fcd)"><path fill="#ef7e6b" d="M 150.480469 79.804688 C 150.085938 80.472656 150.160156 83.621094 150.636719 86.027344 C 151.777344 91.792969 152.574219 98.984375 153.605469 104.792969 C 157.476562 126.605469 160.210938 145.117188 164.707031 166.832031 C 164.878906 167.648438 165.097656 168.535156 165.777344 169.015625 C 166.378906 169.441406 167.175781 169.414062 167.914062 169.390625 C 173.675781 169.207031 185.488281 167.300781 186.371094 164.960938 C 187.664062 163.347656 178.839844 125.222656 178.054688 121.308594 C 176.46875 113.410156 175.375 106.6875 173.90625 98.761719 C 173.011719 93.90625 171.566406 86.558594 170.386719 81.699219 C 168.792969 75.117188 166.660156 75.011719 153.761719 78.207031 C 152.03125 78.636719 150.777344 79.296875 150.480469 79.804688 Z M 150.480469 79.804688 " fill-opacity="1" fill-rule="nonzero"/></g><path stroke-linecap="round" transform="matrix(0.652711, 0, 0, 0.652276, -26.301452, -15.896237)" fill="none" stroke-linejoin="round" d="M 273.930751 167.439128 C 282.800013 164.181305 292.052293 161.917598 301.430251 160.719869 " stroke="#365fa0" stroke-width="0.624" stroke-opacity="1" stroke-miterlimit="10"/><path stroke-linecap="round" transform="matrix(0.652711, 0, 0, 0.652276, -26.301452, -15.896237)" fill="none" stroke-linejoin="round" d="M 277.497607 187.812497 C 287.132905 185.63263 296.750249 183.440786 306.379562 181.26092 " stroke="#365fa0" stroke-width="0.624" stroke-opacity="1" stroke-miterlimit="10"/><path fill="#fdd28a" d="M 159.128906 112.871094 C 160.257812 119.398438 161.84375 127.890625 163.113281 134.160156 C 163.148438 134.335938 163.207031 134.523438 163.355469 134.628906 C 163.511719 134.742188 163.730469 134.726562 163.917969 134.703125 C 168.0625 134.1875 172.042969 133.003906 176.1875 132.488281 C 174.269531 124.714844 173.878906 118.433594 171.960938 110.652344 C 164.921875 111.863281 159.128906 112.871094 159.128906 112.871094 Z M 159.128906 112.871094 " fill-opacity="1" fill-rule="nonzero"/><path stroke-linecap="round" transform="matrix(0.652711, 0, 0, 0.652276, -26.301452, -15.896237)" fill="none" stroke-linejoin="round" d="M 289.83797 262.011802 C 299.682731 260.149334 309.521507 258.298843 319.360283 256.442363 " stroke="#365fa0" stroke-width="0.624" stroke-opacity="1" stroke-miterlimit="10"/><path stroke-linecap="round" transform="matrix(0.652711, 0, 0, 0.652276, -26.301452, -15.896237)" fill="none" stroke-linejoin="round" d="M 290.741653 239.039362 C 291.561551 238.218918 292.088201 237.117007 292.207894 235.967187 C 292.261756 236.518143 292.309633 237.087064 292.608866 237.54819 C 292.908099 238.009315 293.548457 238.302759 294.02723 238.039258 C 294.302524 237.889542 294.470094 237.602087 294.619711 237.332598 C 295.008714 236.590006 295.33787 235.829449 295.607179 235.038948 C 295.798688 235.709676 296.038075 236.452268 296.618586 236.829552 C 297.300837 237.278701 298.258382 237.087064 298.868817 236.548086 C 299.479252 236.009108 299.802424 235.212618 299.969994 234.422117 C 299.760531 235.308437 300.550506 236.230688 301.460174 236.362438 C 302.369842 236.488199 303.26754 235.997131 303.877975 235.308437 C 304.482426 234.619742 304.841505 233.751389 305.182631 232.901001 C 305.092861 233.619639 305.308308 234.398163 305.828974 234.901209 C 306.361608 235.398266 307.19946 235.589903 307.851788 235.260527 C 308.270714 235.050925 308.569946 234.661663 308.85721 234.290367 C 309.557415 233.380093 310.281558 232.427898 310.467083 231.302033 " stroke="#365fa0" stroke-width="0.624" stroke-opacity="1" stroke-miterlimit="10"/><g fill="#ef7e6b" fill-opacity="1"><g transform="translate(23.553653, 89.526599)"><g><path d="M 1.03125 -0.921875 C 0.769531 -0.703125 0.472656 -0.707031 0.140625 -0.9375 C -0.179688 -1.175781 -0.289062 -1.460938 -0.1875 -1.796875 C -0.132812 -1.984375 -0.0390625 -2.226562 0.09375 -2.53125 C 0.363281 -3.164062 0.300781 -3.734375 -0.09375 -4.234375 L -11.8125 -18.796875 C -12.195312 -19.285156 -12.738281 -19.472656 -13.4375 -19.359375 C -13.757812 -19.304688 -14.019531 -19.269531 -14.21875 -19.25 C -14.5625 -19.207031 -14.804688 -19.367188 -14.953125 -19.734375 C -15.109375 -20.109375 -15.054688 -20.40625 -14.796875 -20.625 L -7.015625 -26.921875 C -4.773438 -28.742188 -2.707031 -30.148438 -0.8125 -31.140625 C 1.070312 -32.128906 2.738281 -32.640625 4.1875 -32.671875 C 5.632812 -32.703125 6.796875 -32.175781 7.671875 -31.09375 C 8.554688 -29.988281 8.820312 -28.75 8.46875 -27.375 C 8.113281 -26.007812 7.269531 -24.492188 5.9375 -22.828125 C 8.332031 -24.210938 10.441406 -24.960938 12.265625 -25.078125 C 14.085938 -25.191406 15.597656 -24.5 16.796875 -23 C 17.828125 -21.71875 18.203125 -20.257812 17.921875 -18.625 C 17.648438 -16.988281 16.785156 -15.242188 15.328125 -13.390625 C 13.878906 -11.546875 11.945312 -9.648438 9.53125 -7.703125 Z M 6.515625 -9.234375 C 6.703125 -9.003906 6.925781 -8.875 7.1875 -8.84375 C 7.457031 -8.8125 7.707031 -8.882812 7.9375 -9.0625 C 9.925781 -10.664062 11.101562 -12.175781 11.46875 -13.59375 C 11.832031 -15.019531 11.4375 -16.457031 10.28125 -17.90625 C 9.132812 -19.320312 7.816406 -20 6.328125 -19.9375 C 4.835938 -19.875 3.117188 -19.054688 1.171875 -17.484375 C 0.941406 -17.304688 0.8125 -17.082031 0.78125 -16.8125 C 0.757812 -16.539062 0.847656 -16.285156 1.046875 -16.046875 Z M -5.125 -23.71875 L -1.515625 -19.234375 C -1.335938 -19.003906 -1.113281 -18.875 -0.84375 -18.84375 C -0.570312 -18.8125 -0.320312 -18.882812 -0.09375 -19.0625 C 1.289062 -20.21875 2.109375 -21.332031 2.359375 -22.40625 C 2.609375 -23.488281 2.296875 -24.570312 1.421875 -25.65625 C 0.515625 -26.78125 -0.476562 -27.34375 -1.5625 -27.34375 C -2.65625 -27.34375 -3.925781 -26.769531 -5.375 -25.625 C -5.894531 -25.207031 -5.9375 -24.726562 -5.5 -24.1875 Z M -5.125 -23.71875 "/></g></g></g><g fill="#ef7e6b" fill-opacity="1"><g transform="translate(48.111708, 70.713317)"><g><path d="M -3.171875 -7.28125 C -4.390625 -9.71875 -4.550781 -11.957031 -3.65625 -14 C -2.769531 -16.039062 -1.078125 -17.6875 1.421875 -18.9375 C 3.953125 -20.195312 6.28125 -20.59375 8.40625 -20.125 C 10.53125 -19.65625 12.234375 -18.140625 13.515625 -15.578125 C 14.796875 -13.015625 14.976562 -10.742188 14.0625 -8.765625 C 13.144531 -6.785156 11.421875 -5.164062 8.890625 -3.90625 C 6.390625 -2.65625 4.054688 -2.289062 1.890625 -2.8125 C -0.265625 -3.34375 -1.953125 -4.832031 -3.171875 -7.28125 Z M 1.328125 -16.6875 C 0.921875 -16.382812 0.726562 -16 0.75 -15.53125 C 0.769531 -15.0625 1.023438 -14.414062 1.515625 -13.59375 C 2.015625 -12.78125 2.753906 -11.703125 3.734375 -10.359375 C 4.703125 -9.003906 5.492188 -7.960938 6.109375 -7.234375 C 6.734375 -6.515625 7.273438 -6.070312 7.734375 -5.90625 C 8.191406 -5.738281 8.625 -5.804688 9.03125 -6.109375 C 9.4375 -6.421875 9.625 -6.8125 9.59375 -7.28125 C 9.5625 -7.757812 9.300781 -8.40625 8.8125 -9.21875 C 8.332031 -10.039062 7.609375 -11.128906 6.640625 -12.484375 C 5.660156 -13.828125 4.851562 -14.859375 4.21875 -15.578125 C 3.582031 -16.304688 3.046875 -16.75 2.609375 -16.90625 C 2.179688 -17.070312 1.753906 -17 1.328125 -16.6875 Z M 1.328125 -16.6875 "/></g></g></g><g fill="#ef7e6b" fill-opacity="1"><g transform="translate(68.943878, 60.6525)"><g><path d="M -1.78125 -7.734375 C -2.519531 -10.359375 -2.265625 -12.585938 -1.015625 -14.421875 C 0.234375 -16.265625 2.195312 -17.570312 4.875 -18.34375 C 7.59375 -19.113281 9.957031 -19.070312 11.96875 -18.21875 C 13.976562 -17.375 15.375 -15.578125 16.15625 -12.828125 C 16.945312 -10.066406 16.707031 -7.796875 15.4375 -6.015625 C 14.164062 -4.242188 12.171875 -2.972656 9.453125 -2.203125 C 6.773438 -1.429688 4.421875 -1.503906 2.390625 -2.421875 C 0.359375 -3.335938 -1.03125 -5.109375 -1.78125 -7.734375 Z M 4.375 -16.15625 C 3.925781 -15.925781 3.664062 -15.582031 3.59375 -15.125 C 3.53125 -14.664062 3.664062 -13.988281 4 -13.09375 C 4.34375 -12.195312 4.867188 -10.992188 5.578125 -9.484375 C 6.285156 -7.972656 6.875 -6.804688 7.34375 -5.984375 C 7.820312 -5.160156 8.269531 -4.625 8.6875 -4.375 C 9.101562 -4.132812 9.539062 -4.125 10 -4.34375 C 10.457031 -4.570312 10.710938 -4.921875 10.765625 -5.390625 C 10.828125 -5.867188 10.691406 -6.550781 10.359375 -7.4375 C 10.035156 -8.332031 9.519531 -9.535156 8.8125 -11.046875 C 8.101562 -12.554688 7.503906 -13.722656 7.015625 -14.546875 C 6.523438 -15.367188 6.082031 -15.898438 5.6875 -16.140625 C 5.289062 -16.378906 4.851562 -16.382812 4.375 -16.15625 Z M 4.375 -16.15625 "/></g></g></g><g fill="#ef7e6b" fill-opacity="1"><g transform="translate(91.071749, 54.41397)"><g><path d="M -0.796875 -22.265625 C -1.046875 -22.265625 -1.234375 -22.363281 -1.359375 -22.5625 C -1.484375 -22.757812 -1.53125 -22.976562 -1.5 -23.21875 C -1.476562 -23.46875 -1.359375 -23.671875 -1.140625 -23.828125 C -0.429688 -24.304688 0.488281 -24.710938 1.625 -25.046875 C 2.757812 -25.378906 3.867188 -25.585938 4.953125 -25.671875 C 5.859375 -25.742188 6.585938 -25.722656 7.140625 -25.609375 C 7.703125 -25.503906 8.125 -25.21875 8.40625 -24.75 C 8.695312 -24.289062 8.878906 -23.550781 8.953125 -22.53125 L 9.78125 -11.375 C 10.613281 -11.75 11.300781 -12.203125 11.84375 -12.734375 C 12.394531 -13.273438 12.875 -13.832031 13.28125 -14.40625 C 13.6875 -14.976562 14.113281 -15.519531 14.5625 -16.03125 C 15.007812 -16.550781 15.554688 -17 16.203125 -17.375 C 16.847656 -17.757812 17.664062 -18 18.65625 -18.09375 C 19.382812 -18.195312 20.101562 -18.140625 20.8125 -17.921875 C 21.519531 -17.703125 22.113281 -17.335938 22.59375 -16.828125 C 23.070312 -16.328125 23.316406 -15.679688 23.328125 -14.890625 C 23.367188 -14.109375 23.15625 -13.460938 22.6875 -12.953125 C 22.21875 -12.441406 21.644531 -12.203125 20.96875 -12.234375 C 20.332031 -12.242188 19.828125 -12.351562 19.453125 -12.5625 C 19.085938 -12.78125 18.785156 -13.019531 18.546875 -13.28125 C 18.304688 -13.550781 18.066406 -13.785156 17.828125 -13.984375 C 17.585938 -14.179688 17.273438 -14.265625 16.890625 -14.234375 C 16.421875 -14.203125 16 -14.019531 15.625 -13.6875 C 15.25 -13.351562 14.863281 -12.945312 14.46875 -12.46875 C 14.082031 -12 13.613281 -11.53125 13.0625 -11.0625 C 13.65625 -11.175781 14.203125 -11.253906 14.703125 -11.296875 C 16.234375 -11.410156 17.488281 -11.140625 18.46875 -10.484375 C 19.445312 -9.835938 20.285156 -8.679688 20.984375 -7.015625 L 22.09375 -4.453125 C 22.226562 -4.140625 22.421875 -3.882812 22.671875 -3.6875 C 22.921875 -3.488281 23.179688 -3.390625 23.453125 -3.390625 C 23.609375 -3.378906 23.753906 -3.367188 23.890625 -3.359375 C 24.035156 -3.347656 24.15625 -3.3125 24.25 -3.25 C 24.5625 -3.070312 24.675781 -2.785156 24.59375 -2.390625 C 24.507812 -1.992188 24.285156 -1.785156 23.921875 -1.765625 L 17.3125 -1.28125 C 16.8125 -1.238281 16.347656 -1.347656 15.921875 -1.609375 C 15.492188 -1.867188 15.171875 -2.242188 14.953125 -2.734375 C 14.785156 -3.148438 14.582031 -3.628906 14.34375 -4.171875 C 14.101562 -4.710938 13.8125 -5.390625 13.46875 -6.203125 C 12.9375 -7.484375 12.390625 -8.265625 11.828125 -8.546875 C 11.265625 -8.828125 10.644531 -8.90625 9.96875 -8.78125 L 10.3125 -4.078125 C 10.332031 -3.796875 10.4375 -3.53125 10.625 -3.28125 C 10.8125 -3.03125 11.035156 -2.828125 11.296875 -2.671875 C 11.421875 -2.640625 11.53125 -2.59375 11.625 -2.53125 C 11.71875 -2.46875 11.8125 -2.40625 11.90625 -2.34375 C 12.238281 -2.164062 12.351562 -1.878906 12.25 -1.484375 C 12.15625 -1.085938 11.929688 -0.878906 11.578125 -0.859375 L 1.921875 -0.140625 C 1.585938 -0.117188 1.34375 -0.296875 1.1875 -0.671875 C 1.039062 -1.046875 1.101562 -1.34375 1.375 -1.5625 C 1.488281 -1.644531 1.597656 -1.722656 1.703125 -1.796875 C 1.816406 -1.867188 1.925781 -1.941406 2.03125 -2.015625 C 2.601562 -2.347656 2.863281 -2.847656 2.8125 -3.515625 L 1.46875 -21.8125 C 1.445312 -22.164062 1.3125 -22.367188 1.0625 -22.421875 C 0.8125 -22.472656 0.519531 -22.457031 0.1875 -22.375 C -0.144531 -22.289062 -0.472656 -22.253906 -0.796875 -22.265625 Z M -0.796875 -22.265625 "/></g></g></g><g fill="#ef7e6b" fill-opacity="1"><g transform="translate(118.563306, 52.504326)"><g><path d="M 1.375 0.21875 C 1.03125 0.164062 0.835938 -0.0546875 0.796875 -0.453125 C 0.753906 -0.847656 0.890625 -1.125 1.203125 -1.28125 C 1.367188 -1.375 1.613281 -1.46875 1.9375 -1.5625 C 2.59375 -1.78125 2.972656 -2.210938 3.078125 -2.859375 L 5.90625 -20.53125 C 6.019531 -21.195312 5.796875 -21.726562 5.234375 -22.125 C 4.972656 -22.320312 4.769531 -22.488281 4.625 -22.625 C 4.394531 -22.84375 4.347656 -23.117188 4.484375 -23.453125 C 4.628906 -23.796875 4.851562 -23.984375 5.15625 -24.015625 L 13.953125 -22.609375 C 14.617188 -22.492188 15.09375 -22.144531 15.375 -21.5625 L 24.109375 -3.5625 L 26.296875 -17.25 C 26.410156 -17.914062 26.191406 -18.445312 25.640625 -18.84375 C 25.378906 -19.039062 25.175781 -19.207031 25.03125 -19.34375 C 24.769531 -19.59375 24.726562 -19.894531 24.90625 -20.25 C 25.082031 -20.613281 25.335938 -20.769531 25.671875 -20.71875 L 30.171875 -20 C 30.523438 -19.9375 30.726562 -19.707031 30.78125 -19.3125 C 30.832031 -18.914062 30.695312 -18.640625 30.375 -18.484375 C 30.269531 -18.429688 30.164062 -18.378906 30.0625 -18.328125 C 29.96875 -18.273438 29.863281 -18.238281 29.75 -18.21875 C 29.113281 -17.945312 28.742188 -17.5 28.640625 -16.875 L 28.59375 -16.546875 L 25.8125 0.796875 C 25.707031 1.410156 25.921875 1.941406 26.453125 2.390625 C 26.546875 2.453125 26.628906 2.519531 26.703125 2.59375 C 26.785156 2.675781 26.867188 2.765625 26.953125 2.859375 C 27.210938 3.097656 27.296875 3.40625 27.203125 3.78125 C 27.109375 4.15625 26.800781 4.300781 26.28125 4.21875 L 19.0625 3.0625 C 18.394531 2.957031 17.921875 2.597656 17.640625 1.984375 L 7.921875 -18.21875 L 5.40625 -2.484375 C 5.300781 -1.867188 5.507812 -1.335938 6.03125 -0.890625 C 6.113281 -0.835938 6.203125 -0.765625 6.296875 -0.671875 C 6.390625 -0.585938 6.472656 -0.503906 6.546875 -0.421875 C 6.796875 -0.179688 6.835938 0.117188 6.671875 0.484375 C 6.503906 0.847656 6.238281 1 5.875 0.9375 Z M 1.375 0.21875 "/></g></g></g><g fill="#ef7e6b" fill-opacity="1"><g transform="translate(148.897013, 58.124971)"><g><path d="M 3.265625 -7.234375 C 3.878906 -8.941406 4.8125 -10.222656 6.0625 -11.078125 C 7.320312 -11.929688 8.757812 -12.378906 10.375 -12.421875 C 12 -12.472656 13.679688 -12.160156 15.421875 -11.484375 C 16.890625 -10.910156 18.085938 -10.195312 19.015625 -9.34375 C 19.941406 -8.5 20.59375 -7.59375 20.96875 -6.625 C 21.351562 -5.664062 21.445312 -4.726562 21.25 -3.8125 C 21.039062 -2.851562 20.566406 -2.148438 19.828125 -1.703125 C 19.097656 -1.253906 18.222656 -0.984375 17.203125 -0.890625 C 16.179688 -0.804688 15.128906 -0.859375 14.046875 -1.046875 C 12.972656 -1.242188 12.003906 -1.515625 11.140625 -1.859375 C 10.597656 -2.066406 10.128906 -2.285156 9.734375 -2.515625 C 9.722656 -1.179688 9.972656 -0.132812 10.484375 0.625 C 10.992188 1.394531 11.695312 1.96875 12.59375 2.34375 C 13.582031 2.726562 14.535156 2.796875 15.453125 2.546875 C 16.367188 2.304688 17.128906 1.734375 17.734375 0.828125 C 18.160156 0.203125 18.660156 0.03125 19.234375 0.3125 C 19.796875 0.644531 19.863281 1.15625 19.4375 1.84375 C 18.28125 3.613281 16.789062 4.628906 14.96875 4.890625 C 13.144531 5.160156 11.109375 4.851562 8.859375 3.96875 C 6.265625 2.957031 4.445312 1.484375 3.40625 -0.453125 C 2.375 -2.398438 2.328125 -4.660156 3.265625 -7.234375 Z M 13.8125 -10 C 13.320312 -10.09375 12.8125 -9.90625 12.28125 -9.4375 C 11.75 -8.96875 11.269531 -8.285156 10.84375 -7.390625 C 10.425781 -6.492188 10.113281 -5.453125 9.90625 -4.265625 C 10.375 -4.035156 10.910156 -3.835938 11.515625 -3.671875 C 12.117188 -3.515625 12.707031 -3.472656 13.28125 -3.546875 C 13.863281 -3.617188 14.328125 -3.890625 14.671875 -4.359375 C 15.210938 -5.066406 15.519531 -5.832031 15.59375 -6.65625 C 15.675781 -7.488281 15.566406 -8.222656 15.265625 -8.859375 C 14.960938 -9.503906 14.476562 -9.882812 13.8125 -10 Z M 13.8125 -10 "/></g></g></g><g fill="#ef7e6b" fill-opacity="1"><g transform="translate(170.021746, 66.7004)"><g><path d="M 2.15625 -2.25 C 2.226562 -2.863281 2.453125 -3.347656 2.828125 -3.703125 C 3.203125 -4.066406 3.640625 -4.257812 4.140625 -4.28125 C 4.648438 -4.3125 5.15625 -4.113281 5.65625 -3.6875 C 6.113281 -3.3125 6.40625 -2.90625 6.53125 -2.46875 C 6.65625 -2.03125 6.703125 -1.5625 6.671875 -1.0625 C 6.648438 -0.570312 6.65625 -0.0625 6.6875 0.46875 C 6.71875 1 6.859375 1.546875 7.109375 2.109375 C 7.359375 2.679688 7.820312 3.253906 8.5 3.828125 C 9.164062 4.398438 9.738281 4.679688 10.21875 4.671875 C 10.707031 4.660156 11.078125 4.445312 11.328125 4.03125 C 11.554688 3.664062 11.539062 3.191406 11.28125 2.609375 C 11.03125 2.023438 10.640625 1.363281 10.109375 0.625 C 9.585938 -0.113281 9.035156 -0.898438 8.453125 -1.734375 C 7.867188 -2.566406 7.359375 -3.421875 6.921875 -4.296875 C 6.484375 -5.179688 6.210938 -6.050781 6.109375 -6.90625 C 6.003906 -7.769531 6.191406 -8.585938 6.671875 -9.359375 C 7.203125 -10.222656 7.96875 -10.796875 8.96875 -11.078125 C 9.96875 -11.367188 11.125 -11.34375 12.4375 -11 C 13.757812 -10.664062 15.140625 -9.992188 16.578125 -8.984375 C 18.566406 -7.660156 19.96875 -6.375 20.78125 -5.125 C 21.601562 -3.875 21.828125 -2.796875 21.453125 -1.890625 C 21.210938 -1.285156 20.804688 -0.9375 20.234375 -0.84375 C 19.671875 -0.757812 19.128906 -0.921875 18.609375 -1.328125 C 18.078125 -1.765625 17.742188 -2.238281 17.609375 -2.75 C 17.472656 -3.257812 17.390625 -3.785156 17.359375 -4.328125 C 17.335938 -4.878906 17.222656 -5.421875 17.015625 -5.953125 C 16.816406 -6.492188 16.390625 -7.003906 15.734375 -7.484375 C 15.222656 -7.859375 14.722656 -8.070312 14.234375 -8.125 C 13.742188 -8.175781 13.375 -8.015625 13.125 -7.640625 C 12.832031 -7.210938 12.8125 -6.722656 13.0625 -6.171875 C 13.3125 -5.617188 13.722656 -5.003906 14.296875 -4.328125 C 14.878906 -3.648438 15.492188 -2.9375 16.140625 -2.1875 C 16.796875 -1.4375 17.375 -0.660156 17.875 0.140625 C 18.382812 0.953125 18.710938 1.773438 18.859375 2.609375 C 19.015625 3.441406 18.863281 4.269531 18.40625 5.09375 C 17.507812 6.75 16.144531 7.613281 14.3125 7.6875 C 12.488281 7.757812 10.289062 7.003906 7.71875 5.421875 C 7.257812 5.128906 6.695312 4.71875 6.03125 4.1875 C 5.363281 3.65625 4.707031 3.035156 4.0625 2.328125 C 3.414062 1.628906 2.898438 0.890625 2.515625 0.109375 C 2.140625 -0.671875 2.019531 -1.457031 2.15625 -2.25 Z M 2.15625 -2.25 "/></g></g></g><g fill="#ef7e6b" fill-opacity="1"><g transform="translate(189.00869, 78.9199)"><g><path d="M 10.6875 -9.28125 C 10.257812 -9.65625 10.238281 -10.054688 10.625 -10.484375 L 10.640625 -10.515625 C 10.960938 -10.878906 11.320312 -10.921875 11.71875 -10.640625 L 11.71875 -10.6875 C 12.351562 -10.15625 13.078125 -9.921875 13.890625 -9.984375 C 14.703125 -10.054688 15.519531 -10.328125 16.34375 -10.796875 C 17.175781 -11.265625 17.9375 -11.816406 18.625 -12.453125 C 18.851562 -12.671875 19.109375 -12.800781 19.390625 -12.84375 C 19.679688 -12.882812 19.960938 -12.835938 20.234375 -12.703125 L 23.453125 -10.859375 C 23.734375 -10.703125 23.890625 -10.507812 23.921875 -10.28125 C 23.960938 -10.050781 23.878906 -9.8125 23.671875 -9.5625 L 19 -4.265625 L 21.25 -2.28125 C 21.6875 -1.90625 21.710938 -1.5 21.328125 -1.0625 C 20.941406 -0.632812 20.53125 -0.609375 20.09375 -0.984375 L 17.84375 -2.96875 L 10.875 4.953125 C 10.457031 5.421875 10.265625 5.816406 10.296875 6.140625 C 10.328125 6.460938 10.476562 6.75 10.75 7 C 11.09375 7.289062 11.515625 7.535156 12.015625 7.734375 C 12.515625 7.929688 12.882812 8.132812 13.125 8.34375 C 13.3125 8.5 13.390625 8.660156 13.359375 8.828125 C 13.316406 9.085938 13.023438 9.285156 12.484375 9.421875 C 11.941406 9.554688 11.207031 9.453125 10.28125 9.109375 C 9.351562 8.765625 8.242188 8.007812 6.953125 6.84375 C 5.523438 5.53125 4.71875 4.210938 4.53125 2.890625 C 4.34375 1.566406 4.816406 0.257812 5.953125 -1.03125 L 12.109375 -8.03125 Z M 10.6875 -9.28125 "/></g></g></g></svg>